<svg width="256" height="240" viewBox="0 0 256 240" fill="none" xmlns="http://www.w3.org/2000/svg">
<path d="M243.246 220.864H255.672" stroke="#161616" stroke-width="0.621474" stroke-linecap="round" stroke-linejoin="round"/>
<path d="M145.234 220.864H159.024" stroke="#161616" stroke-width="0.621474" stroke-linecap="round" stroke-linejoin="round"/>
<path d="M36.9214 220.864H83.2183" stroke="#161616" stroke-width="0.621474" stroke-linecap="round" stroke-linejoin="round"/>
<path d="M18.948 220.864H29.4273" stroke="#161616" stroke-width="0.621474" stroke-linecap="round" stroke-linejoin="round"/>
<path d="M66.3933 79.2644C66.3933 79.2644 67.1611 84.2645 62.9227 86.3837C62.9227 86.3837 68.0395 87.4771 68.5125 92.4219C68.5125 92.4219 68.6108 85.665 71.547 84.8481C71.547 84.8481 67.5727 84.7866 66.3933 79.2644Z" fill="white"/>
<path d="M127.273 79.891C127.273 79.891 127.034 82.9623 124.202 83.6196C124.202 83.6196 127.077 84.9832 126.659 87.9747C126.659 87.9747 127.66 83.9881 129.515 83.9144C129.546 83.9144 127.199 83.3186 127.273 79.891Z" fill="white"/>
<path d="M130.67 69.4485C130.67 69.4485 130.424 72.5199 127.598 73.1771C127.598 73.1771 130.467 74.5408 130.055 77.5322C130.055 77.5322 131.057 73.5457 132.912 73.472C132.918 73.472 130.571 72.8761 130.67 69.4485Z" fill="white"/>
<path d="M58.9117 69.6697C58.9117 69.6697 58.6967 74.2398 55.8834 75.6464C57.1006 76.0133 58.1835 76.729 58.998 77.7051C59.8125 78.6812 60.3228 79.8747 60.4658 81.1379C60.4658 81.1379 59.8516 76.0211 63.0211 74.94C62.0041 74.3999 61.1124 73.6514 60.4043 72.7432C59.6962 71.8351 59.1876 70.7877 58.9117 69.6697Z" fill="white"/>
<path d="M200.008 234.623C222.32 234.623 240.408 230.573 240.408 225.575C240.408 220.578 222.32 216.527 200.008 216.527C177.695 216.527 159.608 220.578 159.608 225.575C159.608 230.573 177.695 234.623 200.008 234.623Z" fill="white" stroke="#161616" stroke-width="0.621474" stroke-linecap="round" stroke-linejoin="round"/>
<path d="M200.235 231.165C219.789 231.165 235.641 227.915 235.641 223.905C235.641 219.895 219.789 216.644 200.235 216.644C180.681 216.644 164.829 219.895 164.829 223.905C164.829 227.915 180.681 231.165 200.235 231.165Z" stroke="#161616" stroke-width="0.621474" stroke-linecap="round" stroke-linejoin="round"/>
<path d="M176.205 214.242C174.61 213.473 172.79 213.308 171.082 213.776C170.239 214.023 169.477 214.492 168.876 215.133C168.275 215.775 167.858 216.566 167.667 217.424C167.564 218.249 167.653 219.086 167.928 219.871C168.203 220.655 168.656 221.365 169.252 221.945C170.454 223.095 171.88 223.985 173.441 224.562C177.676 226.34 182.227 227.244 186.82 227.222C190.671 227.222 194.522 226.534 198.355 226.915C202.041 227.271 205.53 228.585 209.166 229.175C212.881 229.777 216.679 229.624 220.334 228.727C224.105 227.799 228.123 225.514 228.78 221.687C228.952 220.365 228.745 219.021 228.182 217.811C227.62 216.602 226.726 215.577 225.604 214.857C224.468 214.161 223.195 213.722 221.872 213.569C220.549 213.416 219.209 213.554 217.944 213.972C218.614 213.763 217.631 207.83 217.459 207.031C216.23 201.503 209.701 197.59 204.271 197.885C200.622 198.081 196.98 200.557 196.212 204.126C194.983 203.431 193.22 203.696 191.973 204.384C191.353 204.738 190.832 205.242 190.455 205.849C190.079 206.456 189.86 207.147 189.817 207.86C187.415 205.673 183.675 205.164 180.603 206.159C179.287 206.522 178.138 207.332 177.354 208.45C176.88 209.287 176.552 210.199 176.383 211.147C176.156 212.154 176.439 213.247 176.205 214.242Z" fill="#FF9D01"/>
<path d="M175.954 214.353C174.359 213.582 172.538 213.418 170.831 213.892C169.987 214.139 169.225 214.608 168.624 215.25C168.024 215.892 167.606 216.683 167.415 217.541C167.314 218.365 167.404 219.202 167.68 219.985C167.956 220.769 168.41 221.477 169.006 222.056C170.205 223.208 171.629 224.101 173.189 224.679C177.426 226.453 181.975 227.358 186.568 227.338C190.419 227.338 194.277 226.644 198.11 227.025C201.796 227.388 205.278 228.696 208.915 229.292C212.632 229.893 216.432 229.741 220.088 228.843C223.86 227.91 227.877 225.631 228.528 221.798C228.701 220.477 228.495 219.134 227.934 217.926C227.373 216.717 226.479 215.693 225.359 214.973C224.221 214.279 222.947 213.84 221.623 213.687C220.3 213.533 218.959 213.668 217.693 214.083C218.362 213.874 217.385 207.94 217.207 207.141C215.979 201.613 209.449 197.706 204.019 197.995C200.37 198.192 196.728 200.667 195.96 204.236C194.732 203.548 192.969 203.806 191.728 204.5C191.107 204.854 190.584 205.358 190.206 205.965C189.829 206.572 189.609 207.263 189.566 207.977C187.164 205.784 183.454 205.28 180.352 206.269C179.037 206.637 177.89 207.446 177.102 208.56C176.631 209.401 176.303 210.315 176.132 211.263C175.904 212.264 176.187 213.352 175.954 214.353Z" stroke="#161616" stroke-width="0.621474" stroke-linecap="round" stroke-linejoin="round"/>
<path opacity="0.19" d="M176.217 214.39C174.625 213.619 172.806 213.456 171.101 213.929C170.258 214.176 169.497 214.644 168.896 215.284C168.295 215.925 167.877 216.715 167.685 217.572C167.582 218.396 167.672 219.234 167.947 220.018C168.222 220.803 168.675 221.513 169.27 222.093C170.473 223.242 171.899 224.133 173.459 224.709C177.695 226.486 182.245 227.393 186.838 227.375C190.689 227.375 194.541 226.681 198.374 227.062C202.059 227.424 205.548 228.733 209.185 229.329C212.9 229.931 216.698 229.777 220.352 228.874C224.124 227.947 228.141 225.661 228.798 221.835C228.971 220.513 228.763 219.17 228.201 217.961C227.639 216.753 226.745 215.729 225.623 215.01C224.487 214.314 223.214 213.873 221.891 213.719C220.568 213.566 219.227 213.702 217.963 214.119C218.632 213.911 217.649 207.977 217.471 207.178C216.243 201.65 209.719 197.743 204.283 198.032C200.64 198.229 196.998 200.704 196.23 204.273C195.002 203.585 193.239 203.843 191.992 204.537C191.373 204.891 190.851 205.394 190.475 206C190.099 206.606 189.879 207.296 189.836 208.008C187.434 205.821 183.724 205.317 180.622 206.306C179.31 206.676 178.165 207.485 177.378 208.597C176.903 209.436 176.575 210.35 176.408 211.3C176.174 212.301 176.457 213.389 176.217 214.39Z" fill="white"/>
<path opacity="0.2" d="M215.358 203.284C212.49 200.686 207.741 201.073 204.639 203.382C201.537 205.692 199.854 209.494 199.142 213.296C198.509 212.898 197.778 212.683 197.031 212.676C196.283 212.67 195.549 212.872 194.909 213.259C193.64 214.059 192.655 215.239 192.096 216.632C190.996 215.843 189.677 215.414 188.323 215.405C186.969 215.397 185.645 215.808 184.535 216.583C183.772 217.208 183.042 217.873 182.348 218.573C180.281 220.402 177.586 221.36 174.828 221.246C172.071 221.131 169.464 219.953 167.556 217.959C167.556 217.959 165.363 221.073 173.785 224.605C182.207 228.137 187.68 227.676 192.213 227.111C196.746 226.546 202.459 227.566 206.445 228.954C210.432 230.342 222.048 230.434 226.145 225.993C230.242 221.552 229.787 212.897 217.944 213.708C217.969 213.671 218.104 205.765 215.358 203.284Z" fill="black"/>
<path d="M191.752 195.98C190.088 195.219 189.295 193.161 189.553 191.343C189.811 189.524 190.782 187.915 191.887 186.429C192.993 184.942 194.179 183.529 194.879 181.834C197.6 175.2 191.74 167.356 194.351 160.679" stroke="#161616" stroke-width="0.621474" stroke-linecap="round" stroke-linejoin="round"/>
<path d="M215.586 195.471C214.019 194.991 213.129 193.333 212.815 191.724C211.888 186.674 215.365 181.895 216.114 176.84C216.728 172.632 215.457 168.394 214.191 164.327" stroke="#161616" stroke-width="0.621474" stroke-linecap="round" stroke-linejoin="round"/>
<path d="M204.019 193.972C202.354 192.405 202.538 189.672 203.405 187.571C204.271 185.47 205.769 183.615 206.384 181.428C206.736 180.126 206.776 178.759 206.502 177.438C206.228 176.117 205.646 174.879 204.805 173.824" stroke="#161616" stroke-width="0.621474" stroke-linecap="round" stroke-linejoin="round"/>
<path d="M189.32 165.617C189.174 167.93 189.318 170.251 189.75 172.528" stroke="#161616" stroke-width="0.621474" stroke-linecap="round" stroke-linejoin="round"/>
<path d="M189.442 179.739C189.657 182.03 188.14 184.07 186.93 186.029C185.513 188.238 184.554 190.709 184.11 193.296C183.665 195.897 184.084 198.572 185.302 200.913" stroke="#161616" stroke-width="0.621474" stroke-linecap="round" stroke-linejoin="round"/>
<path d="M106.922 87.1762L107.537 94.6886V94.8667C107.021 94.8055 106.502 94.7747 105.983 94.7746C101.904 94.7746 95.5401 96.1137 91.0253 97.2316C87.8557 98.0179 85.5706 98.6936 85.5706 98.6936L84.8888 95.9847L82.3028 85.8616C80.2081 84.0618 77.014 76.9917 77.014 76.9917C74.4156 76.5924 71.1846 74.2337 70.4844 70.9351C69.7841 67.6365 73.8444 67.962 73.8444 67.962L76.4734 66.3465L79.7659 57.3599C79.7659 57.3599 76.8727 50.6706 82.5669 47.9801C88.2611 45.2896 107.623 54.6633 107.623 54.6633L109.717 63.4534C112.408 64.5468 109.564 71.1316 109.564 71.1316C109.564 71.1316 109.822 71.2361 110.117 75.1243C110.411 79.0126 106.922 87.1762 106.922 87.1762Z" fill="white"/>
<path d="M100.454 66.2974C101.314 69.5653 104.343 71.8934 104.232 72.7349C104.091 73.816 102.758 75.2779 101.548 75.2964" stroke="#161616" stroke-width="0.621474" stroke-linecap="round" stroke-linejoin="round"/>
<path d="M106.418 61.0394C106.418 61.0394 103.759 58.871 101.701 61.6536" stroke="#161616" stroke-width="1.24295" stroke-linecap="round" stroke-linejoin="round"/>
<path d="M91.1666 77.5507C91.1666 77.5507 92.518 81.0766 97.9235 80.9599" stroke="#161616" stroke-width="0.621474" stroke-linecap="round" stroke-linejoin="round"/>
<path d="M94.6247 63.8096C92.6837 62.6118 89.9932 62.7162 88.5681 65.3637" stroke="#161616" stroke-width="1.24295" stroke-linecap="round" stroke-linejoin="round"/>
<path d="M94.3367 68.9576C94.5149 69.9161 94.2507 70.8008 93.7223 70.8684C93.1939 70.936 92.6409 70.254 92.4566 69.3139C92.2722 68.3739 92.5487 67.5014 93.071 67.4092C93.5932 67.3171 94.1524 68.0052 94.3367 68.9576Z" fill="#161616"/>
<path d="M105.412 66.8199C105.59 67.7784 105.326 68.6632 104.797 68.7307C104.269 68.7983 103.716 68.1163 103.532 67.1763C103.347 66.2362 103.624 65.3637 104.146 65.2654C104.668 65.1671 105.228 65.8491 105.412 66.8199Z" fill="#161616"/>
<path d="M76.7621 70.3209C76.7621 70.3209 72.2657 66.4142 70.8406 69.0923C69.4155 71.7705 74.0409 77.9869 78.3837 76.0888" stroke="#161616" stroke-width="0.621474" stroke-linecap="round" stroke-linejoin="round"/>
<path d="M107.002 55.7014C107.002 55.7014 107.346 66.9608 108.593 69.467C109.84 71.9732 110.909 73.2201 109.594 79.7558C108.28 86.2916 103.268 93.9269 97.9235 94.4367C92.5794 94.9465 80.3003 86.8014 76.8236 76.6477" stroke="#161616" stroke-width="0.621474" stroke-linecap="round" stroke-linejoin="round"/>
<path d="M76.885 70.7814C76.885 70.7814 80.1467 69.0922 79.557 66.1683C78.9673 63.2444 79.3789 62.882 81.7192 61.377C84.0596 59.8721 82.6099 56.7639 80.3678 53.7049C78.1258 50.6459 82.3888 46.9849 85.8593 48.5206C89.3299 50.0562 109.109 57.8389 114.423 55.5293C119.736 53.2196 118.213 45.8362 111.056 41.7084C111.056 41.7084 107.193 37.0953 108.231 32.8507C109.269 28.6062 84.4895 15.7865 72.8739 41.8927C72.8739 41.8927 67.3455 44.0487 66.2091 51.469C65.0789 58.7726 73.0704 68.2199 73.0704 68.2199C73.0704 68.2199 75.896 69.6757 76.885 70.7814Z" fill="#161616"/>
<path d="M80.2266 47.1939C82.0693 44.7368 85.4232 43.8584 88.4392 44.2884C91.4553 44.7184 94.1949 46.2602 96.7686 47.888C99.3424 49.5158 101.873 51.2971 104.754 52.3045C106.372 52.9556 108.151 53.0992 109.852 52.7161C110.516 52.5398 111.136 52.2262 111.672 51.7956C112.207 51.365 112.646 50.8269 112.961 50.216" stroke="white" stroke-width="0.621474" stroke-linecap="round" stroke-linejoin="round"/>
<path d="M75.073 45.2098C72.8617 45.3572 70.9329 47.0157 70.0729 49.0612C69.2885 51.1521 69.2344 53.4468 69.9194 55.5724C70.3721 57.0696 70.9902 58.5118 71.7622 59.8722" stroke="white" stroke-width="0.621474" stroke-linecap="round" stroke-linejoin="round"/>
<path d="M107.359 86.1688C107.035 87.4295 106.931 88.7365 107.052 90.0325C107.12 91.5553 107.29 93.0718 107.561 94.5719" stroke="#161616" stroke-width="0.621474" stroke-linecap="round" stroke-linejoin="round"/>
<path d="M82.2783 85.4194C83.341 89.1787 84.5204 93.7058 85.6076 98.7427" stroke="#161616" stroke-width="0.621474" stroke-linecap="round" stroke-linejoin="round"/>
<path d="M107.69 65.4436C107.69 65.4436 108.698 62.704 110.602 63.9202C112.506 65.1365 109.472 71.2914 109.472 71.2914" stroke="#161616" stroke-width="0.621474" stroke-linecap="round" stroke-linejoin="round"/>
<path d="M110.473 53.8094C110.473 53.8094 111.425 61.5552 109.115 64L107.346 64.5467L106.413 54.2578L110.473 53.8094Z" fill="#161616"/>
<path d="M65.0543 44.0918C65.0543 44.0918 58.8256 43.6557 52.8059 36.4934C46.7861 29.3311 51.6511 24.3003 54.6487 21.6098C57.6463 18.9194 65.042 11.5421 68.1317 8.09609C71.2214 4.65008 77.4132 0.288821 84.4096 1.43135C91.4061 2.57388 98.2182 6.81228 104.871 8.76563C111.523 10.719 118.151 17.9796 119.128 22.7155C120.104 27.4515 118.004 34.8779 115.565 36.6654L111.37 36.5364L113.212 42.894C113.212 42.894 88.2856 33.0351 66.0186 51.5428L67.9044 44.9211L65.0543 44.0918Z" fill="white"/>
<path d="M76.5103 35.6334C76.5103 38.4651 76.5533 41.2969 76.7314 44.1163L66.3811 51.8069L68.9119 39.3374L76.5103 35.6334Z" fill="#FF9D01"/>
<path opacity="0.6" d="M76.5104 35.6334C76.5104 38.4651 76.6394 41.6101 76.8113 44.4296L66.3689 51.8007L68.8997 39.3312L76.5104 35.6334Z" fill="white"/>
<path d="M77.7391 1.62788C78.2393 1.4732 78.7744 1.4725 79.275 1.62585C79.7756 1.77921 80.2185 2.07954 80.5463 2.48785C81.1856 3.31781 81.5118 4.34659 81.4676 5.39331C81.4369 8.80246 78.9 11.6895 76.1174 13.6674C73.3348 15.6453 70.1529 17.0827 67.7082 19.466C66.3144 20.8246 65.2067 22.4485 64.4503 24.242C63.694 26.0354 63.3044 27.9621 63.3044 29.9085C63.3044 31.8549 63.694 33.7816 64.4503 35.575C65.2067 37.3685 66.3144 38.9923 67.7082 40.3509C67.9846 40.6151 68.2672 40.8669 68.5374 41.1433L67.6836 44.6323C67.6836 44.6323 56.6269 43.1888 52.8308 36.4934C49.0346 29.7979 50.2324 26.6652 53.5433 22.7339C56.8542 18.8026 61.154 16.665 65.3679 10.6637C69.5817 4.66233 77.7391 1.62788 77.7391 1.62788Z" fill="#FF9D01"/>
<path opacity="0.6" d="M77.7391 1.62788C78.2393 1.4732 78.7744 1.4725 79.275 1.62585C79.7756 1.77921 80.2185 2.07954 80.5463 2.48785C81.1856 3.31781 81.5118 4.34659 81.4676 5.39331C81.4369 8.80246 78.9 11.6895 76.1174 13.6674C73.3348 15.6453 70.1529 17.0827 67.7082 19.466C66.3144 20.8246 65.2067 22.4485 64.4503 24.242C63.694 26.0354 63.3044 27.9621 63.3044 29.9085C63.3044 31.8549 63.694 33.7816 64.4503 35.575C65.2067 37.3685 66.3144 38.9923 67.7082 40.3509C67.9846 40.6151 68.2672 40.8669 68.5374 41.1433L67.6836 44.6323C67.6836 44.6323 56.6269 43.1888 52.8308 36.4934C49.0346 29.7979 50.2324 26.6652 53.5433 22.7339C56.8542 18.8026 61.154 16.665 65.3679 10.6637C69.5817 4.66233 77.7391 1.62788 77.7391 1.62788Z" fill="white"/>
<path d="M66.3811 51.8069C66.3811 51.8069 83.519 34.0425 113.188 43.2073L109.539 33.1395C109.539 33.1395 88.8999 27.5067 68.9119 39.3374L66.3811 51.8069Z" stroke="#161616" stroke-width="0.621474" stroke-linecap="round" stroke-linejoin="round"/>
<path d="M111.511 38.5635C113.618 38.2256 117.727 35.8853 118.661 33.9627C119.515 31.9917 119.896 29.848 119.773 27.7033C119.791 24.6484 119.082 21.6331 117.703 18.9071C114.527 13.0286 107.825 10.1477 101.615 7.68454L89.9932 3.07143C87.6406 2.13775 85.2389 1.19179 82.7142 1.02594C77.708 0.700379 72.9782 3.48299 69.3172 6.92899C65.6562 10.375 62.7139 14.5151 58.9976 17.8936C57.1855 19.5398 55.1953 20.9649 53.5184 22.8077C51.8414 24.6504 50.4471 26.7758 50.2075 29.2144C49.8512 32.7218 51.9152 36.0573 54.4521 38.5082C56.989 40.9591 59.4644 43.7908 67.6095 44.7552" stroke="#161616" stroke-width="0.621474" stroke-linecap="round" stroke-linejoin="round"/>
<path d="M99.281 31.8065C100.972 30.8065 102.453 29.4882 103.642 27.9244" stroke="#161616" stroke-width="0.621474" stroke-linecap="round" stroke-linejoin="round"/>
<path d="M74.6123 36.2907C73.1396 35.7799 71.7945 34.9574 70.6687 33.8793C69.5428 32.8012 68.6629 31.4929 68.0889 30.0436" stroke="#161616" stroke-width="0.621474" stroke-linecap="round" stroke-linejoin="round"/>
<path d="M76.7685 6.45602C74.0166 6.25946 71.6087 8.29881 69.8458 10.3996C68.0828 12.5004 66.5103 14.9697 64.0471 16.2166" stroke="#161616" stroke-width="0.621474" stroke-linecap="round" stroke-linejoin="round"/>
<path d="M176.027 127.386L150.67 147.177C150.67 147.177 140.934 115.457 140.363 111.507C138.803 107.705 133.145 102.391 133.145 102.391C133.145 102.391 112.353 101.366 110.854 100.506C109.355 99.6457 109.189 94.6763 109.189 94.6763C108.649 94.6763 108.083 94.6763 107.512 94.6763C106.941 94.6763 106.492 94.7255 105.97 94.7623C100.988 95.2338 96.055 96.136 91.2281 97.4589C87.2783 98.4909 84.5142 99.4123 84.5142 99.4123L86.0498 106.083L84.938 107.754C81.2954 110.475 61.3381 117.091 56.1721 119.425C53.9104 121.213 51.7413 123.116 49.6732 125.125C49.6732 125.125 31.7737 160.249 28.9972 164.536C27.3077 167.224 26.3917 170.324 26.3497 173.498C28.4075 177.89 31.4297 178.179 34.544 179.254C35.0671 179.43 35.5798 179.635 36.0796 179.868C39.7222 181.576 71.8419 179.033 71.8419 179.033C71.8419 179.033 69.5323 190.47 80.0608 186.121C96.91 179.156 137.187 183.978 137.187 183.978L136.223 158.179L145.351 168.621C145.351 168.621 149.62 171.133 154.755 167.927C162.562 162.884 185.198 135.027 185.198 135.027C183.011 129.861 176.027 127.386 176.027 127.386ZM74.3051 167.608L72.4624 165.765C69.2805 163.836 57.4129 161.6 57.4129 161.6L65.7669 149.53C65.7669 149.53 74.5816 163.167 74.9808 164.321C75.3801 165.476 74.3051 167.608 74.3051 167.608Z" fill="white"/>
<path d="M91.8791 195.133L93.771 235.901C93.771 235.901 87.5793 234.353 85.8594 231.773C84.1394 229.194 80.3003 190.55 80.3003 190.55C80.3003 190.55 83.9859 193.929 91.8791 195.133Z" fill="#FF9D01"/>
<path opacity="0.56" d="M91.8791 195.133L93.771 235.901C93.771 235.901 87.5793 234.353 85.8594 231.773C84.1394 229.194 80.3003 190.55 80.3003 190.55C80.3003 190.55 83.9859 193.929 91.8791 195.133Z" fill="white"/>
<path d="M75.239 164.997L65.5582 149.923L73.6603 139.204C73.6603 139.204 74.2746 145.267 77.868 148.08C83.6237 152.57 82.3583 166.373 82.3583 166.373L75.239 164.997Z" fill="#FF9D01"/>
<path opacity="0.6" d="M75.239 164.997L65.5582 149.923L73.6603 139.204C73.6603 139.204 74.2746 145.267 77.868 148.08C83.6237 152.57 82.3583 166.373 82.3583 166.373L75.239 164.997Z" fill="white"/>
<path d="M134.109 125.727C134.109 125.727 141.137 156.987 145.209 161.969C149.282 166.95 149.368 147.527 150.805 147.257C152.242 146.987 154.644 158.639 153.717 162.159C153.717 162.159 154.27 164.002 156.309 162.159C158.348 160.316 183.687 136.845 183.687 136.845C183.687 136.845 157.648 169.788 150.203 169.585C143.907 170.458 137.107 159.204 137.107 159.204L134.109 125.727Z" fill="#FF9D01"/>
<path opacity="0.6" d="M134.109 125.727C134.109 125.727 141.137 156.987 145.209 161.969C149.282 166.95 149.368 147.527 150.805 147.257C152.242 146.987 154.644 158.639 153.717 162.159C153.717 162.159 154.27 164.002 156.309 162.159C158.348 160.316 183.687 136.845 183.687 136.845C183.687 136.845 157.648 169.788 150.203 169.585C143.907 170.458 137.107 159.204 137.107 159.204L134.109 125.727Z" fill="white"/>
<path d="M58.6722 159.665L57.112 161.754C57.112 161.754 44.624 160.187 34.544 179.229C31.4297 178.154 28.4014 177.866 26.3497 173.474C26.3917 170.3 27.3077 167.199 28.9972 164.512C31.7737 160.212 49.8821 124.701 49.8821 124.701C51.7382 122.669 53.8529 120.889 56.1721 119.406C69.0716 112.588 81.2954 110.463 84.938 107.735L86.0498 106.065L84.5142 99.3938C84.5142 99.3938 87.2783 98.4724 91.2281 97.4404L93.2674 106.145C93.6032 107.584 93.4086 109.097 92.7191 110.404C92.0297 111.712 90.8918 112.727 89.5143 113.264L60.0297 124.634C58.1267 125.364 56.5693 126.786 55.6684 128.614L39.5256 161.219C39.8512 160.931 46.2702 154.401 58.6722 159.665Z" fill="#FF9D01"/>
<path opacity="0.6" d="M58.6722 159.665L57.112 161.754C57.112 161.754 44.624 160.187 34.544 179.229C31.4297 178.154 28.4014 177.866 26.3497 173.474C26.3917 170.3 27.3077 167.199 28.9972 164.512C31.7737 160.212 49.8821 124.701 49.8821 124.701C49.8821 124.701 53.7519 121.194 56.1721 119.406C68.4021 113.104 81.2954 110.463 84.938 107.735L86.0498 106.065L84.5142 99.3938C84.5142 99.3938 87.2783 98.4724 91.2281 97.4404L93.2674 106.145C93.6032 107.584 93.4086 109.097 92.7191 110.404C92.0297 111.712 90.8918 112.727 89.5143 113.264L60.0297 124.634C58.1267 125.364 56.5693 126.786 55.6684 128.614L39.5256 161.219C39.8512 160.931 46.2702 154.401 58.6722 159.665Z" fill="white"/>
<path d="M178.582 125.819L186.359 114.83C186.359 114.83 191.85 111.145 193.84 110.186C195.831 109.228 196.119 107.342 197.065 108.006C198.011 108.669 197.157 112.558 195.167 113.786C193.177 115.015 190.904 116.243 191.187 117.103C191.469 117.963 203.036 116.913 203.036 116.913C203.036 116.913 217.778 116.716 217.993 117.859C218.208 119.001 208.816 120.703 208.816 120.703C208.816 120.703 218.908 120.592 218.933 121.169C218.958 121.747 213.177 123.737 213.177 123.737C213.177 123.737 217.262 123.952 217.066 124.837C216.869 125.721 212.704 126.864 212.704 126.864C212.704 126.864 204.172 132.079 202.262 132.933C200.352 133.786 187.384 132.171 187.384 132.171L185.167 135.039C185.167 135.039 181.414 129.708 177.433 127.435L178.582 125.819Z" fill="white"/>
<path d="M149.958 159.622C150.499 155.56 150.762 151.466 150.744 147.368" stroke="#161616" stroke-width="0.621474" stroke-linecap="round" stroke-linejoin="round"/>
<path d="M107.549 94.7378C108.163 94.7378 108.82 94.7009 109.471 94.6948L110.086 98.6567C110.184 99.2928 110.505 99.873 110.993 100.293C111.481 100.713 112.102 100.945 112.745 100.948L132.74 102.305C134.208 102.305 139.779 109.928 140.725 112.803L150.805 147.288L176.033 127.257C176.033 127.257 180.947 127.926 185.204 135.058C185.204 135.058 168.963 156.674 154.22 168.228C152.064 169.911 147.236 170.286 145.314 168.345C142.07 165.077 139.134 162.153 136.868 159.131" stroke="#161616" stroke-width="0.621474" stroke-linecap="round" stroke-linejoin="round"/>
<path d="M69.7595 149.094L74.8149 145.832" stroke="#161616" stroke-width="0.621474" stroke-linecap="round" stroke-linejoin="round"/>
<path d="M71.6331 150.193C72.9708 149.762 74.3753 149.574 75.7793 149.64" stroke="#161616" stroke-width="0.621474" stroke-linecap="round" stroke-linejoin="round"/>
<path d="M65.7792 149.831C68.8509 154.114 71.6968 158.555 74.3052 163.136C74.8816 164.162 75.0567 165.366 74.7966 166.514L62.5114 220.803" stroke="#161616" stroke-width="0.621474" stroke-linecap="round" stroke-linejoin="round"/>
<path d="M132.752 117.244L136.984 158.13C137.267 167.307 137.949 173.118 138.354 184.617" stroke="#161616" stroke-width="0.621474" stroke-linecap="round" stroke-linejoin="round"/>
<path d="M85.54 107.441L91.2281 143.891L98.8449 141.348C104.088 139.598 109.606 138.817 115.129 139.044L122.906 139.37L113.532 100.604H117.089L137.107 159.205L138.336 185.194C138.336 185.194 101.081 177.018 80.2082 188.044L81.8422 204.015C81.8422 204.015 82.8373 208.389 83.8877 221.122L67.3026 220.821H62.5114L74.6123 167.706C74.6123 167.706 85.0548 168.474 84.7538 160.071C84.4528 151.668 81.5658 109.443 81.5658 109.443L85.54 107.441Z" fill="#161616"/>
<path d="M100.701 107.097C100.701 107.44 100.599 107.775 100.409 108.06C100.219 108.345 99.9479 108.567 99.6313 108.698C99.3147 108.829 98.9663 108.863 98.6302 108.796C98.2941 108.73 97.9854 108.565 97.7431 108.322C97.5008 108.08 97.3357 107.771 97.2689 107.435C97.202 107.099 97.2363 106.751 97.3675 106.434C97.4986 106.117 97.7207 105.847 98.0056 105.656C98.2906 105.466 98.6256 105.364 98.9683 105.364C99.4278 105.364 99.8685 105.547 100.193 105.872C100.518 106.197 100.701 106.638 100.701 107.097Z" fill="#161616"/>
<path d="M100.946 117.245C101.903 117.245 102.679 116.469 102.679 115.513C102.679 114.556 101.903 113.78 100.946 113.78C99.989 113.78 99.2133 114.556 99.2133 115.513C99.2133 116.469 99.989 117.245 100.946 117.245Z" fill="#161616"/>
<path d="M111.775 161.791C118.036 160.722 124.335 159.89 130.67 159.297" stroke="white" stroke-width="0.621474" stroke-linecap="round" stroke-linejoin="round"/>
<path d="M100.952 163.873C103.524 163.328 106.106 162.822 108.698 162.356" stroke="white" stroke-width="0.621474" stroke-linecap="round" stroke-linejoin="round"/>
<path d="M130.67 161.545C125.576 163.592 120.442 165.535 115.27 167.374" stroke="white" stroke-width="0.621474" stroke-linecap="round" stroke-linejoin="round"/>
<path d="M129.478 118.055C130.007 121.381 130.773 124.666 131.769 127.883" stroke="#161616" stroke-width="0.621474" stroke-linecap="round" stroke-linejoin="round"/>
<path d="M203.153 121.612C203.153 121.612 217.895 119.155 217.999 117.859C218.104 116.563 207.385 117.244 204.86 117.023C202.336 116.802 191.758 118.16 191.408 117.496C191.058 116.833 191.918 116.679 194.246 114.738C196.574 112.797 198.288 109.37 197.661 108.282C197.035 107.195 194.958 109.609 193.361 110.494C192.078 111.212 187.219 113.964 186.34 115.168C185.462 116.372 179.62 124.431 177.409 127.503" stroke="#161616" stroke-width="0.621474" stroke-linecap="round" stroke-linejoin="round"/>
<path d="M203.49 121.489C203.49 121.489 219.019 120.064 218.958 121.194C218.859 123.08 208.448 124.566 204.185 124.88" stroke="#161616" stroke-width="0.621474" stroke-linecap="round" stroke-linejoin="round"/>
<path d="M204.086 124.935C204.086 124.935 217.287 123.092 217.09 124.837C216.894 126.581 201.887 129.425 201.887 129.425" stroke="#161616" stroke-width="0.621474" stroke-linecap="round" stroke-linejoin="round"/>
<path d="M184.657 135.74C186.138 133.614 187.114 132.152 187.114 132.152C187.114 132.152 199.83 133.547 201.654 133.197C203.478 132.846 212.06 127.349 212.06 127.349" stroke="#161616" stroke-width="0.621474" stroke-linecap="round" stroke-linejoin="round"/>
<path d="M190.253 121.538C191.663 121.71 193.002 122.25 194.137 123.104C195.271 123.958 196.16 125.096 196.715 126.403" stroke="#161616" stroke-width="0.621474" stroke-linecap="round" stroke-linejoin="round"/>
<path d="M152.783 148.608C154.214 150.801 154.374 153.559 154.491 156.176" stroke="#161616" stroke-width="0.621474" stroke-linecap="round" stroke-linejoin="round"/>
<path d="M80.3003 188.769L84.852 227.621C84.852 227.621 84.637 231.712 88.0707 233.764C91.5044 235.815 106.554 239.157 114.957 238.635C123.36 238.113 133.999 237.584 137.881 234.605C141.763 231.626 140.854 223.579 140.854 223.579L143.655 199.254C143.655 199.254 146.204 189.967 143.133 187.178C137.519 182.116 90.2022 178.271 80.3003 188.769Z" fill="white"/>
<path d="M80.3002 190.55C82.1286 192.135 84.2634 193.327 86.5718 194.052C90.2574 195.157 135.614 193.855 141.241 192.755C146.868 191.656 144.828 187.049 141.696 185.759C138.563 184.469 109.465 180.231 96.615 183.155C85.2143 185.747 78.0889 185.943 80.3002 190.55Z" fill="#FF9D01"/>
<path opacity="0.6" d="M80.3003 190.55C82.1287 192.135 84.2634 193.327 86.5719 194.052C90.2575 195.157 135.615 193.855 141.241 192.756C146.868 191.656 144.828 187.049 141.696 185.759C138.563 184.469 112.899 180.741 97.4197 182.86C85.9822 185.44 78.0889 185.943 80.3003 190.55Z" fill="white"/>
<path d="M144.859 189.432C144.859 190.661 143.551 191.767 141.235 192.756C135.823 195.09 124.92 196.675 112.365 196.675C100.374 196.675 89.8951 195.231 84.2685 193.075C81.4736 192.006 79.8704 190.765 79.8704 189.432C79.8704 185.427 94.4222 182.184 112.365 182.184C130.307 182.184 144.859 185.427 144.859 189.432Z" stroke="#161616" stroke-width="0.621474" stroke-linecap="round" stroke-linejoin="round"/>
<path d="M141.235 192.743C135.824 195.077 124.92 196.662 112.365 196.662C100.374 196.662 89.8952 195.219 84.2686 193.063C88.4762 190.434 99.7602 188.542 113.022 188.542C125.756 188.554 136.659 190.286 141.235 192.743Z" fill="#161616"/>
<path d="M79.858 189.432L84.938 229.525C85.0508 230.442 85.3969 231.314 85.9433 232.058C86.4897 232.802 87.218 233.394 88.0584 233.776C94.4529 236.663 111.628 242.455 136.137 235.668C137.167 235.376 138.087 234.783 138.78 233.966C139.472 233.149 139.906 232.144 140.025 231.079L141.579 217.719L141.733 216.355L142.992 205.569L143.268 203.186L144.859 189.432" stroke="#161616" stroke-width="0.621474" stroke-linecap="round" stroke-linejoin="round"/>
<path d="M106.757 238.733C105.928 237.674 105.36 236.435 105.101 235.116C104.841 233.796 104.897 232.434 105.264 231.141C105.264 231.141 101.523 233.014 101.412 236.313C101.412 236.313 95.8841 234.777 96.566 226.743C96.566 226.743 93.4947 231.694 96.2404 237.087C98.9862 242.48 106.757 238.733 106.757 238.733Z" fill="#161616"/>
<path d="M121.087 238.758C123.787 236.001 125.553 232.467 126.137 228.653C126.907 231.368 126.863 234.25 126.008 236.939C127.194 236.411 128.236 235.605 129.047 234.591C129.858 233.577 130.415 232.383 130.67 231.11C130.67 231.11 131.45 236.024 129.116 238.758C126.782 241.491 121.087 238.758 121.087 238.758Z" fill="#161616"/>
<path d="M154.239 206.871C152.777 211.982 147.544 217.547 141.579 217.707L141.733 216.343C146.849 216.079 151.622 211.104 152.931 206.515C153.25 205.397 153.784 202.658 151.856 201.417C151.386 201.089 150.851 200.864 150.288 200.759C149.724 200.653 149.145 200.668 148.588 200.802C145.676 201.515 143.508 205.207 143.489 205.244C143.439 205.334 143.367 205.412 143.281 205.469C143.194 205.527 143.095 205.563 142.992 205.575L143.268 203.192C144.276 201.877 146.045 200.028 148.262 199.506C149 199.33 149.765 199.31 150.511 199.446C151.257 199.583 151.966 199.873 152.593 200.299C154.491 201.49 155.087 203.904 154.239 206.871Z" fill="#161616"/>
<path d="M107.463 191.619C110.792 193.505 114.895 193.609 118.618 192.731C119.93 192.476 121.181 191.971 122.303 191.244" stroke="white" stroke-width="0.621474" stroke-linecap="round" stroke-linejoin="round"/>
<path d="M127.162 191.865C126.131 192.909 124.868 193.696 123.477 194.162" stroke="white" stroke-width="0.621474" stroke-linecap="round" stroke-linejoin="round"/>
<path d="M84.2867 218.874C72.1182 220.317 70.9081 206.257 74.1575 204.039C77.407 201.822 83.869 209.427 83.869 209.427" stroke="white" stroke-width="1.24295" stroke-linecap="round" stroke-linejoin="round"/>
<path d="M116.437 191.238L92.2785 147.331C92.2785 147.331 89.6372 145.74 89.8215 148.916C90.0057 152.091 112.242 191.515 112.242 191.515L116.437 191.238Z" fill="white" stroke="#161616" stroke-width="0.621474" stroke-linecap="round" stroke-linejoin="round"/>
<path d="M107.26 200.729C114.57 201.177 123.845 200.999 131.782 198.548" stroke="#161616" stroke-width="0.621474" stroke-linecap="round" stroke-linejoin="round"/>
<path d="M94.3915 199.187C94.3915 199.187 96.8485 199.684 100.725 200.151" stroke="#161616" stroke-width="0.621474" stroke-linecap="round" stroke-linejoin="round"/>
<path d="M71.4426 142.847C66.4878 148.434 61.9912 154.412 57.9965 160.722" stroke="#161616" stroke-width="0.621474" stroke-linecap="round" stroke-linejoin="round"/>
<path d="M55.2079 160.482C52.2124 159.788 49.0835 159.935 46.166 160.906" stroke="#161616" stroke-width="0.621474" stroke-linecap="round" stroke-linejoin="round"/>
<path d="M54.2247 123.749C54.2247 123.749 65.2814 130.082 69.3786 139.812" stroke="#161616" stroke-width="0.621474" stroke-linecap="round" stroke-linejoin="round"/>
<path d="M63.3774 163.314C63.5863 171.25 68.5311 179.365 68.5311 179.365L86.7071 176.588L85.4786 173.068C86.0928 173.369 87.3582 173.265 88.212 173.468C93.5623 174.696 102.34 174.469 102.34 174.469C103.65 173.373 104.744 172.042 105.565 170.544C107.045 167.927 105.651 167.214 105.651 167.214C107.795 164.211 106.148 162.042 106.148 162.042C109.318 160.23 107.991 159.241 107.991 159.241C105.952 156.053 93.9185 157.429 93.9185 157.429L83.3717 166.33L76.2094 165.101L63.3774 163.314Z" fill="white"/>
<path d="M82.3948 166.447L83.9857 165.925L93.9367 157.429C93.9367 157.429 106.935 156.741 107.862 159.076C108.79 161.41 106.087 162.491 103.753 163.425" stroke="#161616" stroke-width="0.621474" stroke-linecap="round" stroke-linejoin="round"/>
<path d="M105.767 162.595C105.767 162.595 108.98 163.996 104.539 167.909" stroke="#161616" stroke-width="0.621474" stroke-linecap="round" stroke-linejoin="round"/>
<path d="M105.344 167.313C106.757 166.514 107.684 170.114 102.733 171.846" stroke="#161616" stroke-width="0.621474" stroke-linecap="round" stroke-linejoin="round"/>
<path d="M105.706 170.777L102.076 174.684C102.076 174.684 93.894 175.396 86.5413 173.025L85.7366 173.259" stroke="#161616" stroke-width="0.621474" stroke-linecap="round" stroke-linejoin="round"/>
<path d="M43.6533 167.651C45.3864 165.809 47.4746 164.338 49.7919 163.325C52.1092 162.313 54.6076 161.78 57.1363 161.76C58.1799 161.774 59.2154 161.946 60.2077 162.27C63.7642 163.382 78.3775 165.04 82.8371 166.606L86.713 176.379C71.4118 180.249 51.0122 180.562 38.7515 179.991C35.6781 179.753 32.6854 178.892 29.9553 177.46C29.1596 177.052 28.4529 176.49 27.8762 175.806C27.2995 175.122 26.8643 174.331 26.5957 173.478C26.3272 172.625 26.2307 171.727 26.3118 170.836C26.3929 169.946 26.65 169.08 27.0682 168.289L49.0772 125.905C49.6915 124.757 53.9913 120.703 55.1769 120.223L66.3933 114.812C67.5939 114.235 68.8241 113.723 70.0788 113.276L82.4808 109.118C83.4206 108.737 86.1664 106.562 85.8961 105.573L84.3789 99.3754C91.7974 96.5791 99.625 95.0207 107.549 94.7623" stroke="#161616" stroke-width="0.621474" stroke-linecap="round" stroke-linejoin="round"/>
<path d="M23.3459 90.6959H10.0717V98.7059H23.3459V90.6959Z" stroke="#161616" stroke-width="0.621474" stroke-linecap="round" stroke-linejoin="round"/>
<path d="M29.2487 101.022H15.9745V109.032H29.2487V101.022Z" stroke="#161616" stroke-width="0.621474" stroke-linecap="round" stroke-linejoin="round"/>
<path d="M240.051 88.0977H226.777V96.1076H240.051V88.0977Z" stroke="#161616" stroke-width="0.621474" stroke-linecap="round" stroke-linejoin="round"/>
<path d="M231.777 98.4233H218.503V106.433H231.777V98.4233Z" stroke="#161616" stroke-width="0.621474" stroke-linecap="round" stroke-linejoin="round"/>
<path d="M44.8388 199.881H33.7452V202.866H44.8388V199.881Z" stroke="#161616" stroke-width="0.621474" stroke-linecap="round" stroke-linejoin="round"/>
<path d="M51.1287 190.219H38.6899V198.229H51.1287V190.219Z" stroke="#161616" stroke-width="0.621474" stroke-linecap="round" stroke-linejoin="round"/>
<path d="M148.637 40.3326V6.67102H233.061V66.1991H220.481" stroke="#161616" stroke-width="0.621474" stroke-linecap="round" stroke-linejoin="round"/>
<path d="M148.637 52.6117V47.5563" stroke="#161616" stroke-width="0.621474" stroke-linecap="round" stroke-linejoin="round"/>
<path d="M159.958 66.1992H148.637V55.9288" stroke="#161616" stroke-width="0.621474" stroke-linecap="round" stroke-linejoin="round"/>
<path d="M171.457 12.6912C171.462 12.9255 171.397 13.1559 171.27 13.3532C171.144 13.5504 170.961 13.7054 170.746 13.7984C170.531 13.8915 170.293 13.9184 170.063 13.8757C169.832 13.833 169.62 13.7226 169.452 13.5587C169.285 13.3947 169.17 13.1846 169.123 12.9551C169.075 12.7256 169.097 12.4872 169.185 12.2702C169.274 12.0532 169.425 11.8675 169.62 11.7367C169.814 11.606 170.043 11.5361 170.277 11.5361C170.586 11.536 170.883 11.6569 171.103 11.8729C171.324 12.0888 171.451 12.3826 171.457 12.6912V12.6912Z" stroke="#161616" stroke-width="0.621474" stroke-linecap="round" stroke-linejoin="round"/>
<path d="M190.867 13.963C191.519 13.963 192.047 13.4349 192.047 12.7833C192.047 12.1318 191.519 11.6036 190.867 11.6036C190.216 11.6036 189.688 12.1318 189.688 12.7833C189.688 13.4349 190.216 13.963 190.867 13.963Z" stroke="#161616" stroke-width="0.621474" stroke-linecap="round" stroke-linejoin="round"/>
<path d="M212.846 12.6912C212.851 12.9255 212.786 13.1559 212.66 13.3532C212.533 13.5504 212.351 13.7054 212.135 13.7984C211.92 13.8915 211.682 13.9184 211.452 13.8757C211.222 13.833 211.009 13.7226 210.842 13.5587C210.674 13.3947 210.559 13.1846 210.512 12.9551C210.464 12.7256 210.486 12.4872 210.575 12.2702C210.663 12.0532 210.814 11.8675 211.009 11.7367C211.203 11.606 211.432 11.5361 211.667 11.5361C211.975 11.536 212.272 11.6569 212.492 11.8729C212.713 12.0888 212.84 12.3826 212.846 12.6912V12.6912Z" stroke="#161616" stroke-width="0.621474" stroke-linecap="round" stroke-linejoin="round"/>
<path d="M173.705 57.876C173.461 57.8828 173.218 57.8397 172.992 57.7495C172.765 57.6593 172.559 57.5238 172.387 57.3513C172.214 57.1788 172.079 56.973 171.989 56.7463C171.898 56.5197 171.855 56.277 171.862 56.0332L172.44 20.836C172.501 19.5583 172.065 18.4404 170.787 18.4404H169.915C168.656 18.4404 167.636 19.0178 167.667 20.2832L168.478 56.0823C168.484 56.322 168.443 56.5605 168.355 56.7838C168.268 57.0071 168.137 57.2107 167.97 57.3825C167.803 57.5543 167.603 57.6908 167.382 57.784C167.161 57.8772 166.924 57.9252 166.684 57.9251H166.561C166.09 57.9267 165.638 58.1128 165.303 58.4435C164.968 58.7742 164.775 59.2233 164.767 59.6942L164.54 76.0028C164.535 76.4215 164.614 76.837 164.772 77.2249C164.929 77.6127 165.163 77.9652 165.459 78.2616C165.755 78.5579 166.107 78.7922 166.494 78.9508C166.882 79.1093 167.297 79.1888 167.716 79.1847L173.514 79.111C173.931 79.1063 174.342 79.0187 174.724 78.8534C175.107 78.6882 175.452 78.4485 175.741 78.1483C176.03 77.8482 176.256 77.4936 176.406 77.1052C176.556 76.7168 176.628 76.3024 176.617 75.8861L176.125 59.602C176.111 59.1274 175.909 58.6778 175.563 58.3519C175.218 58.026 174.757 57.8505 174.282 57.8637L173.705 57.876Z" stroke="#161616" stroke-width="0.621474" stroke-linecap="round" stroke-linejoin="round"/>
<path d="M169.141 21.0083C169.141 20.8017 169.202 20.5997 169.317 20.428C169.432 20.2562 169.595 20.1223 169.786 20.0433C169.977 19.9642 170.187 19.9435 170.389 19.9838C170.592 20.0241 170.778 20.1236 170.924 20.2697C171.07 20.4158 171.17 20.6019 171.21 20.8045C171.25 21.0071 171.23 21.2171 171.151 21.408C171.072 21.5988 170.938 21.762 170.766 21.8768C170.594 21.9915 170.392 22.0528 170.186 22.0528C169.909 22.0528 169.643 21.9427 169.447 21.7469C169.251 21.551 169.141 21.2853 169.141 21.0083Z" stroke="#161616" stroke-width="0.621474" stroke-linecap="round" stroke-linejoin="round"/>
<path d="M166.444 74.5901V65.5051" stroke="#161616" stroke-width="0.621474" stroke-linecap="round" stroke-linejoin="round"/>
<path d="M168.183 74.5901V65.5051" stroke="#161616" stroke-width="0.621474" stroke-linecap="round" stroke-linejoin="round"/>
<path d="M170.173 74.4426L170.148 65.5112" stroke="#161616" stroke-width="0.621474" stroke-linecap="round" stroke-linejoin="round"/>
<path d="M172.292 74.5592V65.4743" stroke="#161616" stroke-width="0.621474" stroke-linecap="round" stroke-linejoin="round"/>
<path d="M174.534 74.5348V65.4498" stroke="#161616" stroke-width="0.621474" stroke-linecap="round" stroke-linejoin="round"/>
<path d="M210.677 21.5672C210.674 21.3596 210.732 21.1556 210.845 20.9813C210.957 20.807 211.12 20.6703 211.31 20.5886C211.501 20.5069 211.712 20.4839 211.916 20.5226C212.12 20.5613 212.308 20.6599 212.456 20.8058C212.603 20.9518 212.704 21.1384 212.745 21.3419C212.786 21.5454 212.766 21.7566 212.687 21.9484C212.607 22.1402 212.472 22.304 212.299 22.4189C212.126 22.5338 211.923 22.5945 211.716 22.5933C211.443 22.5917 211.181 22.4835 210.987 22.2918C210.793 22.1 210.682 21.84 210.677 21.5672V21.5672Z" stroke="#161616" stroke-width="0.621474" stroke-linecap="round" stroke-linejoin="round"/>
<path d="M211.924 60.1303L214.117 21.1063C214.134 20.8022 214.088 20.4979 213.983 20.212C213.879 19.926 213.717 19.6644 213.507 19.4431C213.298 19.2218 213.046 19.0455 212.766 18.9248C212.487 18.8042 212.186 18.7418 211.881 18.7414H211.476C211.178 18.7413 210.882 18.8007 210.608 18.9161C210.333 19.0314 210.084 19.2004 209.875 19.4132C209.666 19.626 209.502 19.8782 209.392 20.1552C209.282 20.4322 209.228 20.7284 209.234 21.0264L209.725 44.2333C209.836 49.5569 209.95 54.8948 210.069 60.2471C210.075 60.4779 210.021 60.7063 209.914 60.9106C209.806 61.1149 209.648 61.2883 209.455 61.4142C207.967 62.4516 206.882 63.9702 206.383 65.714C205.681 68.062 205.532 70.5408 205.947 72.9561C206.396 75.5483 208.195 78.3801 211.009 78.767C213.822 79.154 215.763 76.7031 216.482 74.3014C217.289 71.7588 217.431 69.0518 216.893 66.4388C216.582 65.2478 216.025 64.1348 215.259 63.1709C214.568 62.4185 213.716 61.8325 212.766 61.4572C212.503 61.3537 212.28 61.1694 212.129 60.9309C211.977 60.6925 211.906 60.4121 211.924 60.1303V60.1303Z" stroke="#161616" stroke-width="0.621474" stroke-linecap="round" stroke-linejoin="round"/>
<path d="M207.551 72.3541V67.139" stroke="#161616" stroke-width="0.621474" stroke-linecap="round" stroke-linejoin="round"/>
<path d="M214.996 72.3541V67.139" stroke="#161616" stroke-width="0.621474" stroke-linecap="round" stroke-linejoin="round"/>
<path d="M209.768 73.558V65.8122" stroke="#161616" stroke-width="0.621474" stroke-linecap="round" stroke-linejoin="round"/>
<path d="M213.294 73.558V65.8122" stroke="#161616" stroke-width="0.621474" stroke-linecap="round" stroke-linejoin="round"/>
<path d="M211.488 76.0827V64.6205" stroke="#161616" stroke-width="0.621474" stroke-linecap="round" stroke-linejoin="round"/>
<path d="M190.825 22.4521C191.402 22.4521 191.869 21.9845 191.869 21.4076C191.869 20.8307 191.402 20.3631 190.825 20.3631C190.248 20.3631 189.78 20.8307 189.78 21.4076C189.78 21.9845 190.248 22.4521 190.825 22.4521Z" stroke="#161616" stroke-width="0.621474" stroke-linecap="round" stroke-linejoin="round"/>
<path d="M192.249 55.7629L193.89 20.6149C193.899 20.314 193.849 20.0142 193.741 19.7333C193.632 19.4524 193.469 19.196 193.26 18.9795C193.051 18.763 192.8 18.5906 192.523 18.4727C192.246 18.3547 191.949 18.2936 191.647 18.293H190.106C189.801 18.2933 189.5 18.3558 189.22 18.4764C188.941 18.5971 188.688 18.7734 188.479 18.9947C188.27 19.216 188.108 19.4776 188.003 19.7635C187.899 20.0495 187.853 20.3538 187.87 20.6579L189.78 56.0455C189.799 56.2867 189.752 56.5285 189.643 56.745C189.535 56.9614 189.37 57.1443 189.166 57.274C187.323 58.435 182.212 62.225 182.09 68.7976C181.936 76.8383 191.021 80.4133 196.218 77.4341C201.316 74.5225 204.989 62.4891 193.017 57.0836C192.769 56.9694 192.562 56.7813 192.424 56.5449C192.287 56.3085 192.226 56.0354 192.249 55.7629V55.7629Z" stroke="#161616" stroke-width="0.621474" stroke-linecap="round" stroke-linejoin="round"/>
<path d="M191.783 75.1493C192.095 75.1493 192.348 74.8963 192.348 74.5841C192.348 74.2719 192.095 74.0188 191.783 74.0188C191.47 74.0188 191.217 74.2719 191.217 74.5841C191.217 74.8963 191.47 75.1493 191.783 75.1493Z" stroke="#161616" stroke-width="0.621474" stroke-linecap="round" stroke-linejoin="round"/>
<path d="M187.593 73.1651C187.585 73.0855 187.594 73.0051 187.618 72.929C187.643 72.8529 187.684 72.7829 187.737 72.7234C187.791 72.664 187.856 72.6164 187.929 72.5839C188.002 72.5514 188.082 72.5345 188.162 72.5345C188.242 72.5345 188.321 72.5514 188.394 72.5839C188.467 72.6164 188.532 72.664 188.586 72.7234C188.64 72.7829 188.68 72.8529 188.705 72.929C188.73 73.0051 188.738 73.0855 188.73 73.1651C188.715 73.3057 188.649 73.4358 188.544 73.5304C188.439 73.625 188.303 73.6774 188.162 73.6774C188.02 73.6774 187.884 73.625 187.779 73.5304C187.674 73.4358 187.608 73.3057 187.593 73.1651Z" stroke="#161616" stroke-width="0.621474" stroke-linecap="round" stroke-linejoin="round"/>
<path d="M195.468 73.7304C195.781 73.7304 196.034 73.4773 196.034 73.1651C196.034 72.8529 195.781 72.5999 195.468 72.5999C195.156 72.5999 194.903 72.8529 194.903 73.1651C194.903 73.4773 195.156 73.7304 195.468 73.7304Z" stroke="#161616" stroke-width="0.621474" stroke-linecap="round" stroke-linejoin="round"/>
<path d="M191.783 71.4576C192.095 71.4576 192.348 71.2045 192.348 70.8923C192.348 70.5801 192.095 70.327 191.783 70.327C191.47 70.327 191.217 70.5801 191.217 70.8923C191.217 71.2045 191.47 71.4576 191.783 71.4576Z" stroke="#161616" stroke-width="0.621474" stroke-linecap="round" stroke-linejoin="round"/>
<path d="M187.593 69.4733C187.592 69.36 187.624 69.249 187.686 69.1542C187.749 69.0594 187.837 68.9852 187.942 68.941C188.046 68.8968 188.161 68.8846 188.272 68.906C188.383 68.9273 188.486 68.9813 188.566 69.0609C188.647 69.1406 188.702 69.2424 188.725 69.3534C188.747 69.4644 188.736 69.5796 188.693 69.6844C188.65 69.7892 188.577 69.8788 188.483 69.9418C188.389 70.0049 188.278 70.0386 188.165 70.0386C188.014 70.0386 187.87 69.9792 187.763 69.8734C187.656 69.7676 187.595 69.6238 187.593 69.4733V69.4733Z" stroke="#161616" stroke-width="0.621474" stroke-linecap="round" stroke-linejoin="round"/>
<path d="M195.468 70.0386C195.781 70.0386 196.034 69.7855 196.034 69.4734C196.034 69.1612 195.781 68.9081 195.468 68.9081C195.156 68.9081 194.903 69.1612 194.903 69.4734C194.903 69.7855 195.156 70.0386 195.468 70.0386Z" stroke="#161616" stroke-width="0.621474" stroke-linecap="round" stroke-linejoin="round"/>
<path d="M191.783 67.772C192.095 67.772 192.348 67.5189 192.348 67.2067C192.348 66.8945 192.095 66.6414 191.783 66.6414C191.47 66.6414 191.217 66.8945 191.217 67.2067C191.217 67.5189 191.47 67.772 191.783 67.772Z" stroke="#161616" stroke-width="0.621474" stroke-linecap="round" stroke-linejoin="round"/>
<path d="M187.593 65.7879C187.585 65.7083 187.594 65.6278 187.618 65.5517C187.643 65.4756 187.684 65.4056 187.737 65.3461C187.791 65.2867 187.856 65.2392 187.929 65.2066C188.002 65.1741 188.082 65.1573 188.162 65.1573C188.242 65.1573 188.321 65.1741 188.394 65.2066C188.467 65.2392 188.532 65.2867 188.586 65.3461C188.64 65.4056 188.68 65.4756 188.705 65.5517C188.73 65.6278 188.738 65.7083 188.73 65.7879C188.715 65.9284 188.649 66.0586 188.544 66.1532C188.439 66.2478 188.303 66.3001 188.162 66.3001C188.02 66.3001 187.884 66.2478 187.779 66.1532C187.674 66.0586 187.608 65.9284 187.593 65.7879V65.7879Z" stroke="#161616" stroke-width="0.621474" stroke-linecap="round" stroke-linejoin="round"/>
<path d="M195.468 66.3531C195.781 66.3531 196.034 66.1001 196.034 65.7879C196.034 65.4757 195.781 65.2226 195.468 65.2226C195.156 65.2226 194.903 65.4757 194.903 65.7879C194.903 66.1001 195.156 66.3531 195.468 66.3531Z" stroke="#161616" stroke-width="0.621474" stroke-linecap="round" stroke-linejoin="round"/>
<path d="M191.783 61.525C192.095 61.525 192.348 61.2719 192.348 60.9597C192.348 60.6475 192.095 60.3944 191.783 60.3944C191.47 60.3944 191.217 60.6475 191.217 60.9597C191.217 61.2719 191.47 61.525 191.783 61.525Z" stroke="#161616" stroke-width="0.621474" stroke-linecap="round" stroke-linejoin="round"/>
<path d="M187.593 62.3787C187.585 62.4583 187.594 62.5387 187.618 62.6148C187.643 62.6909 187.684 62.761 187.737 62.8204C187.791 62.8799 187.856 62.9274 187.929 62.9599C188.002 62.9925 188.082 63.0093 188.162 63.0093C188.242 63.0093 188.321 62.9925 188.394 62.9599C188.467 62.9274 188.532 62.8799 188.586 62.8204C188.64 62.761 188.68 62.6909 188.705 62.6148C188.73 62.5387 188.738 62.4583 188.73 62.3787C188.715 62.2382 188.649 62.108 188.544 62.0134C188.439 61.9188 188.303 61.8665 188.162 61.8665C188.02 61.8665 187.884 61.9188 187.779 62.0134C187.674 62.108 187.608 62.2382 187.593 62.3787V62.3787Z" stroke="#161616" stroke-width="0.621474" stroke-linecap="round" stroke-linejoin="round"/>
<path d="M195.468 62.9439C195.781 62.9439 196.034 62.6908 196.034 62.3786C196.034 62.0664 195.781 61.8134 195.468 61.8134C195.156 61.8134 194.903 62.0664 194.903 62.3786C194.903 62.6908 195.156 62.9439 195.468 62.9439Z" stroke="#161616" stroke-width="0.621474" stroke-linecap="round" stroke-linejoin="round"/>
</svg>
