<svg width="267" height="260" viewBox="0 0 267 260" fill="none" xmlns="http://www.w3.org/2000/svg">
<path d="M132.894 82.3522H123.498V93.287H132.894V82.3522Z" fill="white" stroke="#161616" stroke-width="0.683434" stroke-linecap="round" stroke-linejoin="round"/>
<path d="M143.818 82.3522H134.421V93.287H143.818V82.3522Z" fill="white" stroke="#161616" stroke-width="0.683434" stroke-linecap="round" stroke-linejoin="round"/>
<path d="M154.736 82.3522H145.34V93.287H154.736V82.3522Z" fill="white" stroke="#161616" stroke-width="0.683434" stroke-linecap="round" stroke-linejoin="round"/>
<path d="M132.894 82.3522H123.498V86.3034H132.894V82.3522Z" fill="white" stroke="#161616" stroke-width="0.683434" stroke-linecap="round" stroke-linejoin="round"/>
<path d="M143.818 82.3522H134.421V86.3034H143.818V82.3522Z" fill="white" stroke="#161616" stroke-width="0.683434" stroke-linecap="round" stroke-linejoin="round"/>
<path d="M154.736 82.3522H145.34V86.3034H154.736V82.3522Z" fill="white" stroke="#161616" stroke-width="0.683434" stroke-linecap="round" stroke-linejoin="round"/>
<path d="M145.688 122.677H136.292V133.612H145.688V122.677Z" fill="white" stroke="#161616" stroke-width="0.683434" stroke-linecap="round" stroke-linejoin="round"/>
<path d="M156.612 122.677H147.215V133.612H156.612V122.677Z" fill="white" stroke="#161616" stroke-width="0.683434" stroke-linecap="round" stroke-linejoin="round"/>
<path d="M167.53 122.677H158.134V133.612H167.53V122.677Z" fill="white" stroke="#161616" stroke-width="0.683434" stroke-linecap="round" stroke-linejoin="round"/>
<path d="M145.688 122.677H136.292V126.628H145.688V122.677Z" fill="white" stroke="#161616" stroke-width="0.683434" stroke-linecap="round" stroke-linejoin="round"/>
<path d="M156.612 122.677H147.215V126.628H156.612V122.677Z" fill="white" stroke="#161616" stroke-width="0.683434" stroke-linecap="round" stroke-linejoin="round"/>
<path d="M167.53 122.677H158.134V126.628H167.53V122.677Z" fill="white" stroke="#161616" stroke-width="0.683434" stroke-linecap="round" stroke-linejoin="round"/>
<path d="M173.479 82.3522H164.083V93.287H173.479V82.3522Z" fill="white" stroke="#161616" stroke-width="0.683434" stroke-linecap="round" stroke-linejoin="round"/>
<path d="M184.402 82.3522H175.006V93.287H184.402V82.3522Z" fill="white" stroke="#161616" stroke-width="0.683434" stroke-linecap="round" stroke-linejoin="round"/>
<path d="M195.321 82.3522H185.924V93.287H195.321V82.3522Z" fill="white" stroke="#161616" stroke-width="0.683434" stroke-linecap="round" stroke-linejoin="round"/>
<path d="M173.479 82.3522H164.083V86.3034H173.479V82.3522Z" fill="white" stroke="#161616" stroke-width="0.683434" stroke-linecap="round" stroke-linejoin="round"/>
<path d="M184.402 82.3522H175.006V86.3034H184.402V82.3522Z" fill="white" stroke="#161616" stroke-width="0.683434" stroke-linecap="round" stroke-linejoin="round"/>
<path d="M195.321 82.3522H185.924V86.3034H195.321V82.3522Z" fill="white" stroke="#161616" stroke-width="0.683434" stroke-linecap="round" stroke-linejoin="round"/>
<path d="M214.91 82.3522H205.514V93.287H214.91V82.3522Z" fill="white" stroke="#161616" stroke-width="0.683434" stroke-linecap="round" stroke-linejoin="round"/>
<path d="M225.834 82.3522H216.438V93.287H225.834V82.3522Z" fill="white" stroke="#161616" stroke-width="0.683434" stroke-linecap="round" stroke-linejoin="round"/>
<path d="M236.752 82.3522H227.356V93.287H236.752V82.3522Z" fill="white" stroke="#161616" stroke-width="0.683434" stroke-linecap="round" stroke-linejoin="round"/>
<path d="M214.91 82.3522H205.514V86.3034H214.91V82.3522Z" fill="white" stroke="#161616" stroke-width="0.683434" stroke-linecap="round" stroke-linejoin="round"/>
<path d="M225.834 82.3522H216.438V86.3034H225.834V82.3522Z" fill="white" stroke="#161616" stroke-width="0.683434" stroke-linecap="round" stroke-linejoin="round"/>
<path d="M236.752 82.3522H227.356V86.3034H236.752V82.3522Z" fill="white" stroke="#161616" stroke-width="0.683434" stroke-linecap="round" stroke-linejoin="round"/>
<path d="M231.849 111.986V102.955H228.275V111.986L225.314 116.512V134.425H234.81V116.512L231.849 111.986Z" fill="white" stroke="#161616" stroke-width="0.683434" stroke-linecap="round" stroke-linejoin="round"/>
<path d="M231.844 102.955H228.275V107.669H231.844V102.955Z" fill="white" stroke="#161616" stroke-width="0.683434" stroke-linecap="round" stroke-linejoin="round"/>
<path d="M232.652 121.045H225.314V128.598H232.652V121.045Z" fill="white" stroke="#161616" stroke-width="0.683434" stroke-linecap="round" stroke-linejoin="round"/>
<path d="M219.548 111.986V102.955H215.978V111.986L213.018 116.512V134.425H222.508V116.512L219.548 111.986Z" fill="white" stroke="#161616" stroke-width="0.683434" stroke-linecap="round" stroke-linejoin="round"/>
<path d="M219.548 102.955H215.979V107.669H219.548V102.955Z" fill="white" stroke="#161616" stroke-width="0.683434" stroke-linecap="round" stroke-linejoin="round"/>
<path d="M220.356 121.045H213.018V128.598H220.356V121.045Z" fill="white" stroke="#161616" stroke-width="0.683434" stroke-linecap="round" stroke-linejoin="round"/>
<path d="M131.427 111.986V102.955H127.858V111.986L124.897 116.512V134.425H134.393V116.512L131.427 111.986Z" fill="white" stroke="#161616" stroke-width="0.683434" stroke-linecap="round" stroke-linejoin="round"/>
<path d="M131.427 102.955H127.858V107.669H131.427V102.955Z" fill="white" stroke="#161616" stroke-width="0.683434" stroke-linecap="round" stroke-linejoin="round"/>
<path d="M132.235 121.045H124.897V128.598H132.235V121.045Z" fill="white" stroke="#161616" stroke-width="0.683434" stroke-linecap="round" stroke-linejoin="round"/>
<path d="M119.441 93.6966H240.565" stroke="#161616" stroke-width="2.73374" stroke-linecap="round" stroke-linejoin="round"/>
<path d="M159.451 53.8256V134.851" stroke="#161616" stroke-width="2.73374" stroke-linecap="round" stroke-linejoin="round"/>
<path d="M201.364 53.8256V134.851" stroke="#161616" stroke-width="2.73374" stroke-linecap="round" stroke-linejoin="round"/>
<path d="M241.417 52.7686H119.264V134.923H241.417V52.7686Z" stroke="#161616" stroke-width="2.73374" stroke-linecap="round" stroke-linejoin="round"/>
<path d="M100.184 101.571H26.6506V156.549H100.184V101.571Z" fill="white" stroke="#161616" stroke-width="0.683434" stroke-linecap="round" stroke-linejoin="round"/>
<path d="M100.184 118.698H26.6506V121.205H100.184V118.698Z" fill="white" stroke="#161616" stroke-width="0.683434" stroke-linecap="round" stroke-linejoin="round"/>
<path d="M29.6667 135.001C29.6667 135.001 33.485 130.153 39.0742 130.447C44.6633 130.74 45.7147 135.15 45.7147 135.15H27.907L29.6667 135.001Z" fill="white" stroke="#161616" stroke-width="0.683434" stroke-linecap="round" stroke-linejoin="round"/>
<path d="M34.5142 135.587C34.5142 135.587 35.5434 130.435 39.0685 130.435" stroke="#161616" stroke-width="0.683434" stroke-linecap="round" stroke-linejoin="round"/>
<path d="M39.9485 135.294C39.9485 135.294 40.3912 131.332 43.479 131.919" stroke="#161616" stroke-width="0.683434" stroke-linecap="round" stroke-linejoin="round"/>
<path d="M55.0834 135.001C55.0834 135.001 58.9017 130.153 64.4908 130.447C70.08 130.74 71.1314 135.15 71.1314 135.15H53.3181L55.0834 135.001Z" fill="white" stroke="#161616" stroke-width="0.683434" stroke-linecap="round" stroke-linejoin="round"/>
<path d="M59.9309 135.587C59.9309 135.587 60.9547 130.446 64.4797 130.446" stroke="#161616" stroke-width="0.683434" stroke-linecap="round" stroke-linejoin="round"/>
<path d="M65.3652 135.294C65.3652 135.294 65.8024 131.332 68.8903 131.919" stroke="#161616" stroke-width="0.683434" stroke-linecap="round" stroke-linejoin="round"/>
<path d="M80.4945 135.001C80.4945 135.001 84.3128 130.153 89.902 130.447C95.4911 130.74 96.5093 135.15 96.5093 135.15H78.7292L80.4945 135.001Z" fill="white" stroke="#161616" stroke-width="0.683434" stroke-linecap="round" stroke-linejoin="round"/>
<path d="M85.3423 135.587C85.3423 135.587 86.3716 130.446 89.8966 130.446" stroke="#161616" stroke-width="0.683434" stroke-linecap="round" stroke-linejoin="round"/>
<path d="M90.7764 135.294C90.7764 135.294 91.2191 131.332 94.3014 131.919" stroke="#161616" stroke-width="0.683434" stroke-linecap="round" stroke-linejoin="round"/>
<path d="M100.184 135.156H26.6506V137.663H100.184V135.156Z" fill="white" stroke="#161616" stroke-width="0.683434" stroke-linecap="round" stroke-linejoin="round"/>
<path d="M100.184 101.571H26.6506V104.067H100.184V101.571Z" fill="white" stroke="#161616" stroke-width="0.683434" stroke-linecap="round" stroke-linejoin="round"/>
<path d="M100.184 149.261H26.6506V156.544H100.184V149.261Z" fill="white" stroke="#161616" stroke-width="0.683434" stroke-linecap="round" stroke-linejoin="round"/>
<path d="M40.6843 110.027H30.6958V118.842H40.6843V110.027Z" fill="white" stroke="#161616" stroke-width="0.683434" stroke-linecap="round" stroke-linejoin="round"/>
<path d="M40.6843 110.027H30.6958V111.322H40.6843V110.027Z" fill="white" stroke="#161616" stroke-width="0.683434" stroke-linecap="round" stroke-linejoin="round"/>
<path d="M80.3453 110.027H49.6438V118.842H80.3453V110.027Z" fill="white" stroke="#161616" stroke-width="0.683434" stroke-linecap="round" stroke-linejoin="round"/>
<path d="M80.3453 110.027H49.6438V111.322H80.3453V110.027Z" fill="white" stroke="#161616" stroke-width="0.683434" stroke-linecap="round" stroke-linejoin="round"/>
<path d="M72.2659 110.027H63.8933V118.842H72.2659V110.027Z" fill="white" stroke="#161616" stroke-width="0.683434" stroke-linecap="round" stroke-linejoin="round"/>
<path d="M72.2659 110.027H63.8933V111.322H72.2659V110.027Z" fill="white" stroke="#161616" stroke-width="0.683434" stroke-linecap="round" stroke-linejoin="round"/>
<path d="M178.57 195.275L186.439 248.35L185.427 249.871V252.539C185.427 252.539 180.446 256.966 180.347 257.519C180.278 257.981 180.278 258.451 180.347 258.914H194.95C194.95 258.914 194.95 256.883 194.823 255.737C194.696 254.592 194.314 254.852 194.441 253.452C194.569 252.052 195.205 249.644 195.078 248.377C194.95 247.11 194.187 247.104 194.059 244.946C193.932 242.788 192.399 194.921 192.399 194.921L178.57 195.275Z" fill="#161616" stroke="#161616" stroke-width="0.683434" stroke-linecap="round" stroke-linejoin="round"/>
<path d="M209.073 195.275L201.198 248.35L202.216 249.871V252.539C202.216 252.539 207.164 256.966 207.291 257.519C207.359 257.981 207.359 258.451 207.291 258.914H192.693C192.693 258.914 192.693 256.883 192.82 255.737C192.947 254.592 193.324 254.852 193.202 253.452C193.08 252.052 192.438 249.644 192.565 248.377C192.693 247.11 193.451 247.104 193.578 244.946C193.705 242.788 195.238 194.921 195.238 194.921L209.073 195.275Z" fill="#161616" stroke="#161616" stroke-width="0.683434" stroke-linecap="round" stroke-linejoin="round"/>
<path d="M216.604 141.852L218.347 155.338C218.347 155.338 216.504 156.887 214.761 156.018C213.018 155.149 210.201 151.945 210.008 151.458C209.814 150.971 209.133 142.61 209.133 142.61L216.604 141.852Z" fill="#B5B5B5" stroke="#161616" stroke-width="0.683434" stroke-linecap="round" stroke-linejoin="round"/>
<path d="M216.604 141.852L209.133 142.626C209.133 142.626 209.244 143.949 209.388 145.57H217.085L216.604 141.852Z" fill="#161616" stroke="#161616" stroke-width="0.683434" stroke-linecap="round" stroke-linejoin="round"/>
<path d="M170.64 141.658L169.478 154.745C169.478 154.745 169.091 159.106 169.091 161.142C169.091 163.179 169.135 180.964 169.135 180.964C169.135 180.964 168.454 185.812 168.941 186.498C169.428 187.184 171.459 189.891 171.459 189.891C171.459 189.891 173.496 190.472 173.789 190.571C174.082 190.671 174.951 189.409 174.464 189.21C173.99 189.048 173.506 188.919 173.014 188.822L171.459 185.624L172.627 182.519C172.627 182.519 173.496 186.498 173.496 186.886C173.496 187.273 173.983 188.147 174.27 186.98C174.558 185.812 174.176 184.849 174.464 183.394C174.752 181.938 174.176 180.793 173.59 179.686C173.003 178.579 172.715 178.137 172.715 178.137C172.715 178.137 176.263 158.215 176.55 157.346C176.838 156.477 178.017 141.752 178.017 141.752L170.64 141.658Z" fill="#B5B5B5" stroke="#161616" stroke-width="0.683434" stroke-linecap="round" stroke-linejoin="round"/>
<path d="M170.297 145.57H177.701C177.884 143.357 178.011 141.752 178.011 141.752L170.64 141.658L170.297 145.57Z" fill="#161616" stroke="#161616" stroke-width="0.683434" stroke-linecap="round" stroke-linejoin="round"/>
<path d="M208.967 143.213L220.777 142.449C220.777 142.449 215.951 124.42 215.951 123.917C215.951 123.413 201.475 112.362 201.475 112.362L200.584 112.235L193.6 113.281L186.616 112.224L185.731 112.351C185.731 112.351 171.255 123.419 171.255 123.906C171.255 124.393 166.429 142.438 166.429 142.438L178.238 143.202L177.226 157.036C177.226 157.036 175.698 166.306 176.207 172.022C176.717 177.738 176.047 197.289 176.047 197.289H211.153C211.153 197.289 210.998 177.224 210.998 172.022C210.998 166.283 209.726 157.036 209.726 157.036L208.967 143.213Z" fill="white" stroke="#161616" stroke-width="0.683434" stroke-linecap="round" stroke-linejoin="round"/>
<path d="M205.282 115.406L204.756 114.852L203.694 114.033L206.3 127.314H181.16L183.318 114.493L181.924 115.505C181.924 115.505 178.875 126.573 178.747 127.951C178.62 129.329 178.238 143.185 178.238 143.185L177.226 157.02C177.226 157.02 175.698 166.289 176.207 172.005C176.716 177.722 176.047 197.273 176.047 197.273H211.153C211.153 197.273 210.998 177.207 210.998 172.005C210.998 166.267 209.726 157.02 209.726 157.02L208.967 143.185L209.477 128.963L205.282 115.406Z" fill="#FF9D01" stroke="#161616" stroke-width="0.683434" stroke-linecap="round" stroke-linejoin="round"/>
<path d="M186.711 107.194C185.928 107.924 185.368 108.86 185.095 109.894C184.541 111.731 182.721 122.068 183.473 121.985C184.226 121.902 189.411 118.422 189.953 118.112C190.496 117.802 193.943 120.702 193.943 120.702C193.943 120.702 196.97 117.896 197.723 117.68C198.475 117.464 204.092 121.554 204.203 120.596C204.314 119.639 200.966 109.368 199.665 107.869C198.365 106.369 195.133 106.247 195.133 106.247C195.133 106.247 190.385 104.709 186.711 107.194Z" fill="white" stroke="#161616" stroke-width="0.683434" stroke-linecap="round" stroke-linejoin="round"/>
<path d="M185.847 103.951C185.847 103.951 187.142 112.047 187.358 113.021C187.574 113.995 193.511 120.796 193.943 120.685C194.375 120.574 198.154 111.942 198.265 111.399C198.376 110.857 198.912 103.873 198.912 103.873L185.847 103.951Z" fill="#B5B5B5" stroke="#161616" stroke-width="0.683434" stroke-linecap="round" stroke-linejoin="round"/>
<path d="M194.773 103.873L185.847 103.945C185.847 103.945 186.793 109.833 187.203 112.168L193.096 109.955L194.773 103.873Z" fill="#161616" stroke="#161616" stroke-width="0.683434" stroke-linecap="round" stroke-linejoin="round"/>
<path d="M183.473 95.2074C183.473 95.2074 181.099 94.0176 181.099 96.8288C181.125 97.7416 181.363 98.6358 181.794 99.4407C182.225 100.246 182.838 100.939 183.584 101.466C183.905 101.687 183.473 95.2074 183.473 95.2074Z" fill="#B5B5B5" stroke="#161616" stroke-width="0.683434" stroke-linecap="round" stroke-linejoin="round"/>
<path d="M199.598 95.2074C199.598 95.2074 201.972 94.0176 201.972 96.8288C201.946 97.7408 201.708 98.6343 201.278 99.4389C200.848 100.244 200.237 100.938 199.493 101.466C199.139 101.687 199.598 95.2074 199.598 95.2074Z" fill="#B5B5B5" stroke="#161616" stroke-width="0.683434" stroke-linecap="round" stroke-linejoin="round"/>
<path d="M186.494 81.8211C186.494 81.8211 181.514 85.2742 181.746 87.864C181.979 90.4539 183.584 102.551 184.231 103.519C184.879 104.488 189.953 110.536 190.6 110.647C191.248 110.757 194.828 110.901 195.028 110.47C195.227 110.038 199.87 104.277 200.085 102.872C200.301 101.466 200.517 87.5431 200.085 86.1375C199.654 84.7319 195.675 77.9309 186.494 81.8211Z" fill="#B5B5B5" stroke="#161616" stroke-width="0.683434" stroke-linecap="round" stroke-linejoin="round"/>
<path d="M186.494 81.8211C186.494 81.8211 181.514 85.2742 181.746 87.864C181.874 89.3636 182.466 94.0397 183.069 97.9078C183.467 97.2548 184.607 95.235 184.336 93.8017C184.114 92.012 184.007 90.2098 184.015 88.4063C186.147 89.1128 188.36 89.5478 190.6 89.7012C194.164 89.917 198.586 88.1905 198.586 88.1905C198.586 88.1905 198.37 93.4808 198.802 94.1282C199.123 94.6097 199.908 96.2864 200.312 97.1109C200.384 92.6009 200.368 87.0007 200.102 86.1374C199.665 84.7374 195.675 77.9308 186.494 81.8211Z" fill="#161616" stroke="#161616" stroke-width="0.683434" stroke-linecap="round" stroke-linejoin="round"/>
<path d="M190.385 103.63C190.385 103.63 192.217 104.277 193.08 104.061C193.658 103.899 194.206 103.643 194.701 103.303" stroke="#161616" stroke-width="0.683434" stroke-linecap="round" stroke-linejoin="round"/>
<path d="M189.411 104.925C190.286 105.568 191.347 105.908 192.432 105.893C193.682 105.718 194.89 105.317 195.996 104.709" stroke="#161616" stroke-width="0.683434" stroke-linecap="round" stroke-linejoin="round"/>
<path d="M186.71 98.7711C187.25 99.08 187.858 99.2512 188.479 99.2696C189.101 99.2879 189.717 99.1528 190.274 98.8763" stroke="#161616" stroke-width="0.683434" stroke-linecap="round" stroke-linejoin="round"/>
<path d="M194.701 98.8929C194.701 98.8929 196.754 99.3245 197.938 98.3395" stroke="#161616" stroke-width="0.683434" stroke-linecap="round" stroke-linejoin="round"/>
<path d="M190.385 97.0446C190.385 97.0446 188.221 96.2865 186.71 97.1497" stroke="#161616" stroke-width="0.683434" stroke-linecap="round" stroke-linejoin="round"/>
<path d="M194.618 97.2605C194.618 97.2605 196.561 96.0707 197.939 97.1498" stroke="#161616" stroke-width="0.683434" stroke-linecap="round" stroke-linejoin="round"/>
<path d="M211.363 149.411C211.363 149.411 215.342 150.966 217.085 152.515C218.828 154.065 218.447 157.169 217.639 158.603C216.831 160.036 213.665 160.733 212.597 160.445C211.529 160.158 210.483 158.176 209.698 157.031C208.912 155.885 206.588 150.65 206.588 150.65L211.363 149.411Z" fill="#B5B5B5" stroke="#161616" stroke-width="0.683434" stroke-linecap="round" stroke-linejoin="round"/>
<path d="M205.647 147.59C204.998 147.878 204.313 148.075 203.611 148.177C202.642 148.271 200.7 147.496 200.606 148.465C200.512 149.433 201.862 150.208 202.736 150.407C203.574 150.511 204.422 150.511 205.26 150.407C206.39 151.513 207.588 152.548 208.846 153.506C209.914 154.186 212.819 153.412 212.719 152.05C212.62 150.689 210.389 148.758 209.227 148.177C208.065 147.596 205.647 147.59 205.647 147.59Z" fill="#B5B5B5" stroke="#161616" stroke-width="0.683434" stroke-linecap="round" stroke-linejoin="round"/>
<path d="M206.128 145.338C206.128 145.338 204.773 149.798 205.26 150.385C205.747 150.971 206.228 150.966 206.615 150.673C207.003 150.379 208.359 147.568 208.652 146.506C208.945 145.443 207.296 143.595 206.128 145.338Z" fill="#B5B5B5" stroke="#161616" stroke-width="0.683434" stroke-linecap="round" stroke-linejoin="round"/>
<path d="M208.652 146.484C208.652 146.484 210.495 146.871 210.589 147.74C210.683 148.608 209.039 151.137 208.071 151.718C207.102 152.3 206.615 150.65 206.615 150.65L208.652 146.484Z" fill="#B5B5B5" stroke="#161616" stroke-width="0.683434" stroke-linecap="round" stroke-linejoin="round"/>
<path d="M210.589 147.762C210.589 147.762 212.144 148.636 212.144 149.51C212.144 150.385 210.589 151.934 209.72 152.416C208.851 152.897 208.06 151.741 208.06 151.741L210.589 147.762Z" fill="#B5B5B5" stroke="#161616" stroke-width="0.683434" stroke-linecap="round" stroke-linejoin="round"/>
<path d="M212.144 149.51C212.144 149.51 213.112 151.641 212.725 152.028C212.337 152.416 210.201 153.777 209.72 153.583C209.238 153.39 209.72 152.416 209.72 152.416C209.72 152.416 211.773 150.385 212.144 149.51Z" fill="#B5B5B5" stroke="#161616" stroke-width="0.683434" stroke-linecap="round" stroke-linejoin="round"/>
<path d="M116.077 154.076H116.038C115.409 154.02 114.798 153.837 114.241 153.54C113.683 153.242 113.192 152.835 112.795 152.344C112.565 152.036 112.401 151.684 112.314 151.31C112.228 150.935 112.22 150.547 112.292 150.169C112.321 149.883 112.421 149.61 112.582 149.372C112.744 149.135 112.961 148.941 113.216 148.808C113.544 148.697 113.893 148.658 114.238 148.695C114.583 148.731 114.915 148.841 115.214 149.018C115.332 149.084 115.419 149.194 115.456 149.325C115.492 149.455 115.476 149.594 115.41 149.713C115.344 149.831 115.234 149.918 115.103 149.955C114.973 149.991 114.834 149.975 114.716 149.909C114.394 149.718 114.012 149.657 113.648 149.737C113.541 149.804 113.451 149.895 113.386 150.003C113.321 150.11 113.281 150.232 113.271 150.357C113.224 150.597 113.228 150.845 113.283 151.083C113.339 151.322 113.444 151.546 113.592 151.741C114.235 152.497 115.149 152.972 116.138 153.063C116.273 153.071 116.399 153.133 116.489 153.234C116.579 153.335 116.624 153.468 116.616 153.603C116.608 153.738 116.547 153.864 116.446 153.954C116.345 154.044 116.212 154.09 116.077 154.081V154.076Z" fill="white" stroke="#161616" stroke-width="0.683434" stroke-linecap="round" stroke-linejoin="round"/>
<path d="M118.251 155.105C117.489 155.105 116.754 154.822 116.189 154.311C115.624 153.799 115.268 153.097 115.191 152.338L114.765 148.144H121.721L121.306 152.333C121.23 153.091 120.875 153.793 120.311 154.305C119.747 154.817 119.013 155.102 118.251 155.105Z" fill="white" stroke="#161616" stroke-width="0.683434" stroke-linecap="round" stroke-linejoin="round"/>
<path d="M125.861 155.05H111.08L112.314 156.074H124.632L125.861 155.05Z" fill="white" stroke="#161616" stroke-width="0.683434" stroke-linecap="round" stroke-linejoin="round"/>
<path d="M116.425 147.231C116.425 147.231 116.791 145.57 117.742 144.823C118.694 144.076 119.956 143.65 119.956 142.704" stroke="#161616" stroke-width="0.683434" stroke-linecap="round" stroke-linejoin="round"/>
<path d="M119.054 147.231C119.054 147.231 118.761 146.284 120.161 145.626" stroke="#161616" stroke-width="0.683434" stroke-linecap="round" stroke-linejoin="round"/>
<path d="M221.617 134.309H190.274V156.145H221.617V134.309Z" fill="white" stroke="#161616" stroke-width="0.683434" stroke-linecap="round" stroke-linejoin="round"/>
<path d="M220.024 137.236H191.857V156.145H220.024V137.236Z" fill="white" stroke="#161616" stroke-width="0.683434" stroke-linecap="round" stroke-linejoin="round"/>
<path d="M210.522 146.688H201.364V156.14H210.522V146.688Z" fill="white" stroke="#161616" stroke-width="0.683434" stroke-linecap="round" stroke-linejoin="round"/>
<path d="M191.857 137.236L190.274 134.309H221.612L220.024 137.236H191.857Z" fill="white" stroke="#161616" stroke-width="0.683434" stroke-linecap="round" stroke-linejoin="round"/>
<path d="M255.65 156.156H22.6941V258.886H255.65V156.156Z" fill="white" stroke="#161616" stroke-width="0.683434" stroke-linecap="round" stroke-linejoin="round"/>
<path d="M255.65 156.156H22.6941V164.33H255.65V156.156Z" fill="#161616" stroke="#161616" stroke-width="0.683434" stroke-linecap="round" stroke-linejoin="round"/>
<path d="M255.65 156.156H22.6941V161.38H255.65V156.156Z" fill="white" stroke="#161616" stroke-width="0.683434" stroke-linecap="round" stroke-linejoin="round"/>
<path d="M7.02224 205.562C8.00172 205.988 10.4089 205.933 10.4089 205.933C10.4089 205.933 9.89428 204.361 9.85554 204.273C9.32983 203.166 7.64202 201.346 6.30284 201.506C6.07841 201.543 5.86424 201.627 5.67424 201.752C5.48425 201.877 5.32268 202.04 5.20004 202.232C5.07739 202.423 4.99641 202.638 4.96236 202.863C4.92832 203.088 4.94196 203.318 5.0024 203.537C5.22375 204.494 6.18663 205.192 7.02224 205.562Z" fill="#161616"/>
<path d="M7.85793 212.524C8.87615 212.673 11.0233 212.053 11.1782 212.004C11.533 213.23 11.9693 214.432 12.4842 215.601C12.7775 216.287 13.0984 216.967 13.4249 217.642C13.2257 217.355 13.0486 217.089 13.021 217.089C12.2241 216.165 10.1323 214.848 8.87062 215.385C8.66378 215.479 8.47918 215.616 8.32881 215.787C8.17844 215.958 8.06567 216.158 7.99782 216.375C7.92997 216.592 7.90857 216.821 7.935 217.047C7.96143 217.273 8.0351 217.491 8.15123 217.687C8.61606 218.533 9.73389 218.954 10.6359 219.087C11.5379 219.22 13.4028 218.727 13.8787 218.589C14.0115 218.843 14.1333 219.103 14.2661 219.364C14.8859 220.603 15.5112 221.832 16.0867 223.06C16.2914 223.492 16.4741 223.923 16.6401 224.361L16.2914 223.862C15.489 222.938 13.3973 221.621 12.1411 222.153C11.9335 222.247 11.7482 222.384 11.5973 222.556C11.4464 222.727 11.3333 222.928 11.2654 223.145C11.1975 223.363 11.1763 223.593 11.2032 223.819C11.2302 224.046 11.3046 224.264 11.4217 224.46C11.8865 225.307 12.9988 225.722 13.9064 225.855C14.8139 225.987 16.4851 225.545 17.0606 225.384C17.2377 225.833 17.4148 226.281 17.5697 226.723C17.6638 227.028 17.78 227.316 17.8575 227.625C17.935 227.935 18.029 228.24 18.1121 228.539C18.2504 229.125 18.3998 229.728 18.5216 230.304C18.6101 230.702 18.6876 231.084 18.765 231.466C18.5714 231.034 18.1674 230.193 18.1231 230.127C17.4757 229.092 15.6052 227.476 14.2771 227.814C14.0583 227.876 13.855 227.984 13.6806 228.13C13.5062 228.277 13.3645 228.458 13.2648 228.662C13.1651 228.867 13.1096 229.09 13.1019 229.318C13.0942 229.545 13.1345 229.772 13.2202 229.983C13.5522 230.89 14.5926 231.471 15.4669 231.737C16.3412 232.003 18.5548 231.765 18.8204 231.737C18.9477 232.373 19.0694 232.993 19.169 233.58C19.4014 234.875 19.573 236.037 19.7224 237.016H20.6355C20.475 236.004 20.2702 234.803 19.9991 233.43C19.8718 232.783 19.7279 232.097 19.5674 231.388C20.2081 231.133 20.8327 230.839 21.4379 230.509C22.2663 231.214 23.1881 231.803 24.1771 232.257C23.9336 232.86 23.6901 233.441 23.4466 233.989C22.9541 235.129 22.4782 236.147 22.0632 237.005H23.0371C23.3913 236.214 23.7842 235.306 24.1992 234.305C24.4482 233.696 24.7028 233.038 24.9629 232.362C25.2174 232.418 27.3258 232.844 28.3108 232.622C29.2018 232.418 30.2809 231.914 30.6793 231.034C30.7802 230.83 30.837 230.607 30.8459 230.379C30.8549 230.152 30.8158 229.925 30.7312 229.714C30.6466 229.502 30.5185 229.311 30.3551 229.152C30.1917 228.994 29.9967 228.871 29.7828 228.793C28.4879 228.356 26.5013 229.833 25.7764 230.818C25.7321 230.874 25.3392 231.554 25.0957 231.992C25.2008 231.715 25.306 231.438 25.4056 231.162C25.6159 230.608 25.804 230.027 26.0088 229.413C26.1029 229.114 26.1914 228.81 26.2855 228.505C26.3795 228.201 26.4459 227.874 26.529 227.559C26.706 226.818 26.8444 226.054 26.9717 225.285C27.4697 225.467 29.235 226.082 30.1536 226.015C31.0722 225.949 32.2066 225.617 32.7323 224.809C32.8629 224.622 32.9525 224.409 32.9954 224.185C33.0383 223.962 33.0334 223.731 32.9812 223.509C32.929 223.287 32.8306 223.079 32.6923 222.897C32.5541 222.716 32.3792 222.566 32.179 222.457C30.9615 221.832 28.7757 223.01 27.9124 223.851C27.8571 223.907 27.3037 224.593 27.0104 224.958C27.0823 224.493 27.1543 224.034 27.2151 223.564C27.3812 222.202 27.5084 220.824 27.6468 219.447C27.6855 219.026 27.7298 218.605 27.7741 218.185C27.9511 218.251 30.0374 219.026 31.0611 218.954C31.9742 218.893 33.1142 218.556 33.6454 217.748C33.7759 217.561 33.8656 217.348 33.9085 217.124C33.9514 216.9 33.9465 216.67 33.8943 216.448C33.8421 216.226 33.7436 216.018 33.6054 215.836C33.4672 215.655 33.2922 215.505 33.092 215.396C31.8746 214.765 29.6943 215.949 28.8255 216.79C28.7591 216.851 27.9677 217.847 27.7796 218.107C27.8737 217.183 27.9843 216.259 28.1227 215.34C28.3083 214.118 28.5726 212.909 28.914 211.721C28.997 211.755 31.1663 212.574 32.2343 212.502C33.1474 212.435 34.2873 212.103 34.8186 211.29C34.9491 211.103 35.0387 210.89 35.0816 210.666C35.1245 210.443 35.1197 210.212 35.0675 209.99C35.0152 209.768 34.9168 209.56 34.7786 209.378C34.6403 209.197 34.4654 209.047 34.2652 208.938C33.0478 208.313 30.8674 209.491 29.9986 210.332C29.9322 210.399 29.08 211.467 28.9362 211.672C28.9362 211.605 28.9694 211.533 28.9915 211.461C29.3676 210.281 29.8472 209.137 30.4247 208.041C30.7346 207.433 31.0667 206.863 31.4042 206.32C31.7916 206.514 33.579 207.383 34.5308 207.427C35.4826 207.471 36.6171 207.256 37.2313 206.508C37.3825 206.338 37.4959 206.138 37.5642 205.92C37.6324 205.703 37.6539 205.473 37.6273 205.247C37.6006 205.021 37.5264 204.803 37.4096 204.607C37.2927 204.412 37.1357 204.243 36.9491 204.112C35.8091 203.354 33.5126 204.267 32.5553 205.031C32.4999 205.07 32.0019 205.551 31.6754 205.905C31.8303 205.662 31.9853 205.407 32.1402 205.18C32.6936 204.317 33.2912 203.559 33.8004 202.895C34.0992 202.524 34.3537 202.187 34.636 201.877C35.1174 201.877 37.0542 201.81 37.9009 201.412C38.7476 201.013 39.6772 200.305 39.8765 199.353C39.9244 199.135 39.927 198.91 39.8841 198.691C39.8412 198.472 39.7537 198.264 39.6271 198.08C39.5005 197.897 39.3374 197.741 39.148 197.623C38.9586 197.505 38.747 197.427 38.5262 197.394C37.1649 197.25 35.5435 199.115 35.0455 200.233C35.0067 200.333 34.4921 201.921 34.5308 201.921H34.5585C34.2984 202.209 34.0051 202.53 33.7395 202.878C33.1861 203.537 32.6327 204.278 32.0129 205.131C31.3648 206.047 30.768 206.998 30.2255 207.98C29.6163 209.078 29.107 210.228 28.7037 211.417V211.456C28.7037 211.057 28.7037 209.934 28.7037 209.845C28.5488 208.633 27.5306 206.381 26.1859 206.132C25.9608 206.097 25.7308 206.11 25.5109 206.169C25.291 206.229 25.0861 206.334 24.9096 206.478C24.7331 206.622 24.589 206.802 24.4866 207.006C24.3842 207.209 24.3259 207.432 24.3154 207.66C24.238 208.622 24.9352 209.585 25.6159 210.194C26.3851 210.88 28.5156 211.544 28.6871 211.6C28.3035 212.818 28.0021 214.06 27.7851 215.318C27.6578 216.054 27.5472 216.796 27.4476 217.532C27.4476 217.183 27.4476 216.873 27.4476 216.829C27.2871 215.617 26.2744 213.365 24.9242 213.116C24.6992 213.082 24.4695 213.095 24.25 213.155C24.0304 213.215 23.8259 213.32 23.6496 213.464C23.4734 213.608 23.3292 213.787 23.2266 213.99C23.1239 214.193 23.0651 214.416 23.0537 214.643C22.9763 215.606 23.6735 216.569 24.3542 217.178C25.0348 217.786 26.8554 218.401 27.3369 218.55C27.2981 218.838 27.2594 219.103 27.2262 219.413C27.0657 220.786 26.9053 222.18 26.7116 223.503C26.6396 223.973 26.5566 224.438 26.4736 224.897C26.4736 224.593 26.4736 224.344 26.4736 224.294C26.3131 223.077 25.2949 220.83 23.9502 220.581C23.7255 220.546 23.496 220.558 23.2765 220.617C23.0569 220.677 22.8523 220.782 22.6759 220.925C22.4995 221.069 22.3553 221.248 22.2526 221.451C22.1499 221.653 22.091 221.876 22.0798 222.103C22.0023 223.066 22.6996 224.034 23.3802 224.643C24.0609 225.251 25.7044 225.799 26.2744 225.987C26.1748 226.458 26.0752 226.934 25.959 227.388C25.8704 227.692 25.804 227.996 25.6989 228.301C25.5937 228.605 25.5052 228.904 25.4111 229.197C25.2064 229.75 24.9961 230.348 24.7803 230.896C24.6364 231.278 24.487 231.637 24.3431 232.003C24.415 231.532 24.5423 230.608 24.5423 230.531C24.5064 229.445 24.19 228.387 23.6237 227.459C23.632 227.34 23.632 227.219 23.6237 227.1C23.595 226.874 23.519 226.656 23.4006 226.462C23.2823 226.267 23.1242 226.099 22.9368 225.97C22.7494 225.841 22.5367 225.752 22.3128 225.71C22.0889 225.668 21.8586 225.674 21.6371 225.727C20.3145 226.076 19.4734 228.4 19.4236 229.601C19.4236 229.673 19.4678 230.459 19.5066 230.957C19.4402 230.669 19.3793 230.403 19.3074 230.094C19.1635 229.507 19.0085 228.926 18.8425 228.301C18.754 228.002 18.6654 227.697 18.5714 227.393C18.4773 227.089 18.3555 226.779 18.2504 226.469C17.9903 225.755 17.697 225.041 17.3705 224.327C17.8852 224.206 19.6947 223.741 20.4252 223.182C21.1556 222.623 21.9193 221.715 21.9138 220.752C21.9191 220.525 21.8766 220.299 21.7891 220.089C21.7016 219.878 21.5709 219.689 21.4056 219.533C21.2402 219.376 21.0439 219.256 20.8293 219.18C20.6146 219.104 20.3865 219.074 20.1596 219.092C18.7982 219.236 17.614 221.411 17.3927 222.606C17.3927 222.684 17.2931 223.564 17.2598 224.045C17.0662 223.619 16.8725 223.193 16.6622 222.767C16.0535 221.544 15.4005 220.321 14.753 219.098L14.1665 217.991C14.3491 217.947 16.5183 217.438 17.3318 216.818C18.0567 216.265 18.8259 215.351 18.8204 214.389C18.8266 214.161 18.7847 213.934 18.6975 213.724C18.6102 213.513 18.4796 213.323 18.3141 213.167C18.1485 213.01 17.9519 212.89 17.7368 212.815C17.5218 212.739 17.2933 212.71 17.0662 212.728C15.7049 212.878 14.5206 215.047 14.2993 216.242C14.2993 216.331 14.1665 217.598 14.1499 217.903C13.7238 217.073 13.3032 216.242 12.9214 215.418C12.4026 214.297 11.9571 213.143 11.5877 211.965C11.6707 211.965 13.934 211.411 14.7696 210.786C15.4946 210.233 16.2638 209.32 16.2582 208.351C16.2653 208.123 16.2241 207.896 16.1371 207.685C16.0502 207.474 15.9196 207.284 15.7538 207.127C15.5881 206.971 15.3911 206.851 15.1756 206.775C14.9602 206.7 14.7313 206.671 14.504 206.691C13.1427 206.835 11.964 209.004 11.7371 210.205C11.7371 210.299 11.5932 211.66 11.5932 211.909C11.5932 211.843 11.5379 211.771 11.5213 211.705C11.1824 210.512 10.9509 209.292 10.8296 208.058C10.7521 207.377 10.7134 206.724 10.6968 206.082C11.1284 206.033 13.0984 205.767 13.9119 205.274C14.7254 204.782 15.572 203.985 15.6606 203.022C15.6918 202.797 15.6751 202.567 15.6115 202.348C15.548 202.129 15.439 201.926 15.2918 201.752C15.1445 201.579 14.9623 201.438 14.757 201.339C14.5516 201.24 14.3278 201.186 14.1001 201.179C12.7277 201.179 11.3332 203.205 10.9403 204.367C10.9403 204.428 10.7798 205.097 10.6912 205.584C10.6912 205.297 10.6912 204.998 10.6912 204.721C10.6912 203.686 10.7576 202.74 10.824 201.899C10.8628 201.423 10.9126 200.991 10.9569 200.587C11.3553 200.316 12.938 199.198 13.4249 198.374C13.9119 197.549 14.2937 196.47 13.934 195.568C13.8576 195.356 13.7377 195.162 13.5821 194.999C13.4264 194.836 13.2384 194.707 13.0301 194.62C12.8218 194.534 12.5977 194.492 12.3722 194.497C12.1467 194.502 11.9248 194.554 11.7205 194.65C10.5031 195.28 10.1821 197.732 10.3869 198.938C10.3869 199.043 10.8628 200.643 10.8849 200.626C10.8296 201.013 10.7798 201.428 10.73 201.882C10.647 202.723 10.5584 203.675 10.5363 204.716C10.4974 205.836 10.5233 206.957 10.6138 208.075C10.7151 209.326 10.9243 210.567 11.2391 211.782C11.2415 211.795 11.2415 211.808 11.2391 211.821C11.0233 211.483 10.3924 210.559 10.3315 210.493C9.53467 209.569 7.4429 208.252 6.18119 208.783C5.97419 208.878 5.7895 209.016 5.63909 209.187C5.48869 209.358 5.37592 209.559 5.3081 209.777C5.24028 209.994 5.21892 210.224 5.24539 210.45C5.27187 210.676 5.3456 210.894 5.4618 211.09C5.8381 211.976 6.95039 212.391 7.85793 212.524Z" fill="#161616"/>
<path d="M31.3712 206.088C31.3712 206.088 31.8084 204.489 31.825 204.384C31.991 203.177 31.6036 200.737 30.3696 200.139C30.162 200.044 29.9364 199.993 29.7079 199.991C29.4793 199.99 29.253 200.036 29.0438 200.128C28.8346 200.22 28.6473 200.356 28.4943 200.525C28.3412 200.695 28.226 200.895 28.1561 201.113C27.8241 202.026 28.2446 203.138 28.7095 203.88C29.3126 204.804 31.3712 206.088 31.3712 206.088Z" fill="#161616"/>
<path d="M28.6816 235.284H13.9175L15.395 258.886H27.2041L28.6816 235.284Z" fill="#161616"/>
<path d="M155.289 193.122H152.318V258.886H155.289V193.122Z" fill="white" stroke="#161616" stroke-width="0.683434" stroke-linecap="round" stroke-linejoin="round"/>
<path d="M163.369 218.174H144.731V219.463H163.369V218.174Z" fill="white" stroke="#161616" stroke-width="0.683434" stroke-linecap="round" stroke-linejoin="round"/>
<path d="M164.813 239.911H143.287V241.2H164.813V239.911Z" fill="white" stroke="#161616" stroke-width="0.683434" stroke-linecap="round" stroke-linejoin="round"/>
<path d="M142.766 258.886H139.59L145.113 192.386H148.283L142.766 258.886Z" fill="white" stroke="#161616" stroke-width="0.683434" stroke-linecap="round" stroke-linejoin="round"/>
<path d="M165.339 258.886H168.51L162.993 192.386H159.816L165.339 258.886Z" fill="white" stroke="#161616" stroke-width="0.683434" stroke-linecap="round" stroke-linejoin="round"/>
<path d="M164.608 188.336H142.993V194.046H164.608V188.336Z" fill="white" stroke="#161616" stroke-width="0.683434" stroke-linecap="round" stroke-linejoin="round"/>
<path d="M164.608 188.336H142.993V191.075H164.608V188.336Z" fill="#161616" stroke="#161616" stroke-width="0.683434" stroke-linecap="round" stroke-linejoin="round"/>
<path d="M166.296 187.229H141.311V189.625H166.296V187.229Z" fill="white" stroke="#161616" stroke-width="0.683434" stroke-linecap="round" stroke-linejoin="round"/>
<path d="M92.6192 18.1326H33.7673V97.0999H92.6192V18.1326Z" fill="#161616" stroke="#161616" stroke-width="0.683434" stroke-linecap="round" stroke-linejoin="round"/>
<path d="M40.4685 38.2479H61.2092" stroke="white" stroke-width="0.683434" stroke-linecap="round" stroke-linejoin="round"/>
<path d="M40.4685 47.1851H61.2092" stroke="white" stroke-width="0.683434" stroke-linecap="round" stroke-linejoin="round"/>
<path d="M40.4685 56.1277H61.2092" stroke="white" stroke-width="0.683434" stroke-linecap="round" stroke-linejoin="round"/>
<path d="M40.4685 65.0702H61.2092" stroke="white" stroke-width="0.683434" stroke-linecap="round" stroke-linejoin="round"/>
<path d="M40.4685 74.0074H61.2092" stroke="white" stroke-width="0.683434" stroke-linecap="round" stroke-linejoin="round"/>
<path d="M40.4685 82.95H61.2092" stroke="white" stroke-width="0.683434" stroke-linecap="round" stroke-linejoin="round"/>
<path d="M65.5479 38.2479H86.2885" stroke="white" stroke-width="0.683434" stroke-linecap="round" stroke-linejoin="round"/>
<path d="M65.5479 47.1851H86.2885" stroke="white" stroke-width="0.683434" stroke-linecap="round" stroke-linejoin="round"/>
<path d="M65.5479 56.1277H86.2885" stroke="white" stroke-width="0.683434" stroke-linecap="round" stroke-linejoin="round"/>
<path d="M65.5479 65.0702H86.2885" stroke="white" stroke-width="0.683434" stroke-linecap="round" stroke-linejoin="round"/>
<path d="M65.5479 74.0074H86.2885" stroke="white" stroke-width="0.683434" stroke-linecap="round" stroke-linejoin="round"/>
<path d="M65.5479 82.95H86.2885" stroke="white" stroke-width="0.683434" stroke-linecap="round" stroke-linejoin="round"/>
<path d="M53.2572 32.6755C52.7565 32.7001 52.2592 32.5811 51.8239 32.3324C51.4742 32.1103 51.2122 31.774 51.0824 31.3805C50.931 30.9239 50.858 30.4449 50.8666 29.9639V27.0255C50.8555 26.5316 50.9285 26.0395 51.0824 25.5701C51.2147 25.173 51.4858 24.8369 51.846 24.6238C52.2834 24.3815 52.7799 24.2665 53.2793 24.2918C53.7562 24.269 54.2309 24.37 54.6572 24.585C54.983 24.768 55.2338 25.06 55.3655 25.4096C55.5101 25.8084 55.5795 26.2306 55.5703 26.6547V27.3353H53.96V26.5717C53.9616 26.3867 53.9505 26.2018 53.9267 26.0183C53.9169 25.8692 53.8586 25.7273 53.7607 25.6143C53.6982 25.5561 53.6237 25.5121 53.5425 25.4853C53.4613 25.4586 53.3753 25.4497 53.2904 25.4594C53.2034 25.4517 53.1158 25.462 53.033 25.4896C52.9501 25.5172 52.8739 25.5615 52.8089 25.6199C52.7044 25.738 52.6371 25.8843 52.6152 26.0404C52.5881 26.2236 52.5752 26.4086 52.5765 26.5938V30.307C52.5732 30.5076 52.5918 30.708 52.6318 30.9046C52.6567 31.0552 52.7306 31.1934 52.8421 31.2975C52.969 31.3981 53.1289 31.4474 53.2904 31.4359C53.3737 31.4466 53.4583 31.4382 53.5379 31.4114C53.6175 31.3845 53.6899 31.3399 53.7497 31.2809C53.8491 31.162 53.9091 31.015 53.9212 30.8604C53.9485 30.6772 53.9614 30.4922 53.96 30.307V29.5489H55.5703V30.224C55.5775 30.6547 55.5101 31.0835 55.3711 31.4912C55.2421 31.8505 54.9967 32.1564 54.6738 32.36C54.2415 32.5986 53.7498 32.7081 53.2572 32.6755Z" fill="white"/>
<path d="M58.3262 32.6644C57.9556 32.6739 57.5878 32.5961 57.2527 32.4375C56.9663 32.2932 56.7322 32.0629 56.5831 31.779C56.4232 31.4423 56.3455 31.0725 56.3562 30.6999V28.6137C56.3455 28.2411 56.4232 27.8713 56.5831 27.5346C56.7322 27.2506 56.9663 27.0204 57.2527 26.8761C57.5898 26.7264 57.9546 26.6491 58.3235 26.6491C58.6923 26.6491 59.0571 26.7264 59.3943 26.8761C59.6782 27.0128 59.9137 27.2329 60.0694 27.5069C60.2339 27.8422 60.3137 28.2127 60.3018 28.586V30.6888C60.3137 31.0621 60.2339 31.4326 60.0694 31.7679C59.9182 32.0523 59.6823 32.2824 59.3943 32.4264C59.0618 32.5884 58.696 32.6699 58.3262 32.6644ZM58.3262 31.6351C58.3789 31.6391 58.4318 31.6318 58.4815 31.6137C58.5311 31.5955 58.5763 31.567 58.614 31.53C58.6885 31.4489 58.735 31.3461 58.7468 31.2367C58.7704 31.0959 58.7815 30.9533 58.78 30.8106V28.4975C58.7817 28.3529 58.7706 28.2084 58.7468 28.0658C58.7326 27.9571 58.6864 27.855 58.614 27.7725C58.5768 27.7345 58.5318 27.705 58.4822 27.6859C58.4325 27.6668 58.3793 27.6586 58.3262 27.6619C58.2723 27.6581 58.2181 27.6661 58.1675 27.6852C58.1169 27.7043 58.071 27.7341 58.0329 27.7725C57.9735 27.8572 57.939 27.9569 57.9333 28.0603C57.9095 28.2029 57.8984 28.3473 57.9001 28.4919V30.8272C57.8986 30.9699 57.9097 31.1125 57.9333 31.2533C57.947 31.3633 57.9955 31.4661 58.0717 31.5466C58.1452 31.6097 58.2406 31.6415 58.3373 31.6351H58.3262Z" fill="white"/>
<path d="M61.464 32.5647V27.7725H60.8774V26.7321H61.464V26.3281C61.4578 26.0223 61.4932 25.717 61.5692 25.4206C61.6312 25.1764 61.7835 24.9649 61.9953 24.8285C62.2982 24.6639 62.6418 24.5891 62.9858 24.6127H63.3621C63.4839 24.6127 63.6167 24.6127 63.7605 24.6514V25.7582C63.7026 25.7409 63.6434 25.7279 63.5835 25.7194C63.5227 25.7139 63.4616 25.7139 63.4008 25.7194C63.342 25.7148 63.2829 25.7239 63.2282 25.746C63.1735 25.7681 63.1246 25.8025 63.0854 25.8467C63.0091 25.9648 62.9741 26.105 62.9858 26.2451V26.71H63.7605V27.7503H62.9858V32.5426L61.464 32.5647ZM64.3195 32.5647V27.7725H63.7329V26.7321H64.3195V26.3281C64.3133 26.0223 64.3487 25.717 64.4246 25.4206C64.4867 25.1764 64.6389 24.9649 64.8507 24.8285C65.1537 24.6639 65.4973 24.5891 65.8413 24.6127H66.2176C66.3393 24.6127 66.4721 24.6127 66.616 24.6514V25.7582C66.558 25.7409 66.4988 25.7279 66.4389 25.7194C66.3782 25.7139 66.317 25.7139 66.2563 25.7194C66.1975 25.7148 66.1383 25.7239 66.0836 25.746C66.0289 25.7681 65.98 25.8025 65.9409 25.8467C65.8645 25.9648 65.8295 26.105 65.8413 26.2451V26.71H66.616V27.7503H65.8413V32.5426L64.3195 32.5647Z" fill="white"/>
<path d="M69.0895 32.6644C68.7155 32.6775 68.3442 32.5957 68.0104 32.4264C67.7174 32.2729 67.4823 32.0282 67.3408 31.7291C67.1854 31.3814 67.1097 31.0032 67.1195 30.6224V28.669C67.1097 28.2881 67.1854 27.91 67.3408 27.5622C67.4839 27.2671 67.7189 27.0263 68.0104 26.876C68.3409 26.7086 68.7081 26.6267 69.0785 26.6381C69.4628 26.6153 69.8459 26.6995 70.1852 26.8815C70.462 27.04 70.6766 27.2878 70.7939 27.5843C70.9329 27.9364 71.0006 28.3126 70.9932 28.6911V29.7204H68.6524V30.8271C68.6479 30.9676 68.6666 31.1078 68.7077 31.2422C68.7343 31.3322 68.7885 31.4115 68.8626 31.4691C68.9407 31.5112 69.0285 31.5322 69.1172 31.5299C69.2023 31.5315 69.2863 31.5105 69.3607 31.4691C69.4369 31.4196 69.4936 31.3453 69.5212 31.2588C69.5587 31.1389 69.5755 31.0135 69.571 30.888V30.3346H70.9821V30.8271C70.9994 31.0732 70.9655 31.3203 70.8827 31.5526C70.7998 31.785 70.6697 31.9977 70.5006 32.1774C70.309 32.3473 70.0857 32.4778 69.8436 32.5614C69.6014 32.645 69.3452 32.68 69.0895 32.6644ZM68.6358 29.001H69.5544V28.4476C69.5585 28.3112 69.5417 28.1749 69.5046 28.0436C69.48 27.9512 69.4231 27.8707 69.3441 27.8167C69.262 27.7746 69.1707 27.7537 69.0785 27.7559C68.9907 27.7525 68.9039 27.7756 68.8294 27.8223C68.7575 27.8889 68.7073 27.9757 68.6856 28.0713C68.6472 28.2344 68.6305 28.4019 68.6358 28.5693V29.001Z" fill="white"/>
<path d="M73.7324 32.6644C73.3491 32.6823 72.9677 32.6003 72.6257 32.4264C72.3383 32.2707 72.1092 32.0261 71.9727 31.7291C71.8146 31.3822 71.7388 31.0034 71.7513 30.6224V28.669C71.7388 28.2879 71.8146 27.9091 71.9727 27.5622C72.1153 27.2686 72.348 27.0282 72.6367 26.876C72.9689 26.7077 73.3381 26.6258 73.7103 26.6381C74.0854 26.6204 74.4582 26.7045 74.7894 26.8815C75.0634 27.0433 75.2771 27.29 75.3981 27.5843C75.535 27.9369 75.6009 28.313 75.5918 28.6911V29.7204H73.2565V30.8271C73.252 30.9676 73.2707 31.1078 73.3119 31.2422C73.3362 31.3332 73.3909 31.4132 73.4668 31.4691C73.5429 31.5112 73.6289 31.5322 73.7158 31.5299C73.8026 31.5307 73.8882 31.5098 73.9648 31.4691C74.0393 31.419 74.094 31.3447 74.1198 31.2588C74.1573 31.1389 74.1742 31.0135 74.1696 30.888V30.3346H75.5862V30.8271C75.6025 31.0736 75.5676 31.3208 75.4838 31.5531C75.4 31.7855 75.2691 31.998 75.0993 32.1774C74.7246 32.5117 74.2341 32.6865 73.7324 32.6644ZM73.2787 29.001H74.1917V28.4476C74.1959 28.3112 74.1791 28.175 74.1419 28.0436C74.1197 27.9516 74.0646 27.8709 73.987 27.8168C73.9049 27.7746 73.8136 27.7537 73.7214 27.7559C73.6335 27.7518 73.5465 27.775 73.4723 27.8223C73.3986 27.8875 73.3482 27.9749 73.3285 28.0713C73.2901 28.2344 73.2734 28.4019 73.2787 28.5693V29.001Z" fill="white"/>
<path d="M76.3552 193.122H73.3835V258.886H76.3552V193.122Z" fill="white" stroke="#161616" stroke-width="0.683434" stroke-linecap="round" stroke-linejoin="round"/>
<path d="M84.4401 218.174H65.8022V219.463H84.4401V218.174Z" fill="white" stroke="#161616" stroke-width="0.683434" stroke-linecap="round" stroke-linejoin="round"/>
<path d="M85.8846 239.911H64.3582V241.2H85.8846V239.911Z" fill="white" stroke="#161616" stroke-width="0.683434" stroke-linecap="round" stroke-linejoin="round"/>
<path d="M63.8322 258.886H60.6614L66.1841 192.386H69.355L63.8322 258.886Z" fill="white" stroke="#161616" stroke-width="0.683434" stroke-linecap="round" stroke-linejoin="round"/>
<path d="M86.4102 258.886H89.581L84.0583 192.386H80.8875L86.4102 258.886Z" fill="white" stroke="#161616" stroke-width="0.683434" stroke-linecap="round" stroke-linejoin="round"/>
<path d="M85.6797 188.336H64.0647V194.046H85.6797V188.336Z" fill="white" stroke="#161616" stroke-width="0.683434" stroke-linecap="round" stroke-linejoin="round"/>
<path d="M85.6797 188.336H64.0647V191.075H85.6797V188.336Z" fill="#161616" stroke="#161616" stroke-width="0.683434" stroke-linecap="round" stroke-linejoin="round"/>
<path d="M87.3674 187.229H62.3823V189.625H87.3674V187.229Z" fill="white" stroke="#161616" stroke-width="0.683434" stroke-linecap="round" stroke-linejoin="round"/>
<path d="M99.7135 242.771C99.7135 242.771 95.1979 246.579 95.6185 247.143C96.039 247.708 100.416 253.784 101.971 255.328C103.526 256.872 108.058 259.135 108.883 258.288C109.708 257.442 106.487 250.95 105.922 249.539C105.47 248.032 105.325 246.45 105.496 244.885C105.64 244.432 99.7135 242.771 99.7135 242.771Z" fill="#161616" stroke="#161616" stroke-width="0.683434" stroke-linecap="round" stroke-linejoin="round"/>
<path d="M101.971 252.915C100.389 251.017 97.8542 247.304 96.681 245.549C95.9782 246.28 95.4636 246.927 95.6185 247.132C96.0446 247.685 100.416 253.773 101.971 255.317C103.526 256.861 108.058 259.124 108.883 258.277C108.949 258.179 108.994 258.069 109.017 257.953C109.04 257.837 109.04 257.718 109.016 257.602C107.079 256.7 103.548 254.807 101.971 252.915Z" fill="white" stroke="#161616" stroke-width="0.683434" stroke-linecap="round" stroke-linejoin="round"/>
<path d="M84.3351 243.181C84.3351 243.181 79.8195 246.988 80.2401 247.553C80.6606 248.117 85.0379 254.193 86.5928 255.737C88.1478 257.281 92.68 259.55 93.5046 258.703C94.3291 257.857 91.1029 251.366 90.5384 249.954C90.0838 248.446 89.9408 246.861 90.1179 245.295C90.2562 244.874 84.3351 243.181 84.3351 243.181Z" fill="#161616" stroke="#161616" stroke-width="0.683434" stroke-linecap="round" stroke-linejoin="round"/>
<path d="M86.5926 253.341C85.0044 251.437 82.4755 247.724 81.3023 245.976C80.594 246.706 80.0849 247.348 80.2398 247.553C80.6659 248.106 85.0376 254.193 86.5926 255.737C88.1476 257.281 92.6798 259.55 93.5043 258.703C93.5705 258.604 93.6159 258.493 93.6377 258.376C93.6596 258.259 93.6575 258.139 93.6316 258.023C91.6892 257.121 88.1642 255.234 86.5926 253.341Z" fill="white" stroke="#161616" stroke-width="0.683434" stroke-linecap="round" stroke-linejoin="round"/>
<path d="M86.0947 165.852C86.0947 165.852 99.0659 176.438 99.2154 177.633C99.28 178.63 99.2298 179.631 99.0659 180.616C99.0659 180.616 111.744 204.92 112.192 208.202C112.64 211.483 115.623 246.678 115.623 246.678L111.749 246.529L112.496 249.661C112.496 249.661 106.083 252.345 99.2154 250.259C92.3479 248.172 82.0606 243.247 82.0606 243.247L88.9225 218.041C88.9225 218.041 82.8353 217.742 82.3594 216.253C81.8835 214.765 64.4631 181.944 64.4631 181.944C64.4631 181.944 69.8309 164.347 71.1756 163.898C72.5203 163.45 86.0947 165.852 86.0947 165.852Z" fill="#B5B5B5" stroke="#161616" stroke-width="0.683434" stroke-linecap="round" stroke-linejoin="round"/>
<path d="M93.6482 197.915C95.1202 198.058 95.7842 198.058 95.7842 198.058" stroke="#161616" stroke-width="0.683434" stroke-linecap="round" stroke-linejoin="round"/>
<path d="M71.9226 188.812C71.9226 188.812 81.0202 195.967 87.135 197.013C89.1216 197.35 90.732 197.566 91.9992 197.738" stroke="#161616" stroke-width="0.683434" stroke-linecap="round" stroke-linejoin="round"/>
<path d="M92.0601 186.88C92.0601 186.88 105.341 209.248 105.48 209.696C105.618 210.144 111.744 245.339 111.744 245.339" stroke="#161616" stroke-width="0.683434" stroke-linecap="round" stroke-linejoin="round"/>
<path d="M93.1003 188.214L94.8933 184.633" stroke="#161616" stroke-width="0.683434" stroke-linecap="round" stroke-linejoin="round"/>
<path d="M93.9585 212.491C94.9266 212.857 95.9461 213.07 96.9799 213.121" stroke="#161616" stroke-width="0.683434" stroke-linecap="round" stroke-linejoin="round"/>
<path d="M75.3535 198.656C75.3535 198.656 89.3761 210.139 92.06 211.627" stroke="#161616" stroke-width="0.683434" stroke-linecap="round" stroke-linejoin="round"/>
<path d="M88.928 218.041L94.1463 223.11" stroke="#161616" stroke-width="0.683434" stroke-linecap="round" stroke-linejoin="round"/>
<path d="M93.4657 237.526C92.1835 238.709 90.6224 239.549 88.928 239.966" stroke="#161616" stroke-width="0.683434" stroke-linecap="round" stroke-linejoin="round"/>
<path d="M102.497 212.225C102.497 212.225 96.382 232.506 94.7495 235.788" stroke="#161616" stroke-width="0.683434" stroke-linecap="round" stroke-linejoin="round"/>
<path d="M99.4368 242.694C99.2366 243.636 98.9647 244.561 98.6233 245.461" stroke="#161616" stroke-width="0.683434" stroke-linecap="round" stroke-linejoin="round"/>
<path d="M102.646 222.662C102.646 222.662 101.119 234.781 99.6692 241.615" stroke="#161616" stroke-width="0.683434" stroke-linecap="round" stroke-linejoin="round"/>
<path d="M103.51 151.536L100.544 153.058L98.9443 154.424L97.5 152.449L102.292 148.038L103.51 151.536Z" fill="white" stroke="#161616" stroke-width="0.683434" stroke-linecap="round" stroke-linejoin="round"/>
<path d="M104.495 140.662L97.428 151.458L101.761 151.082L108.756 141.044L104.495 140.662Z" fill="#161616" stroke="#161616" stroke-width="0.683434" stroke-linecap="round" stroke-linejoin="round"/>
<path d="M107.538 146.212C107.538 146.212 104.423 145.454 104.118 146.135C103.814 146.816 104.345 147.125 105.104 147.507C105.862 147.889 106.93 148.188 107.461 147.352C107.992 146.517 107.538 146.212 107.538 146.212Z" fill="white" stroke="#161616" stroke-width="0.683434" stroke-linecap="round" stroke-linejoin="round"/>
<path d="M106.016 148.144C106.016 148.144 102.519 147.457 102.292 148.066C102.065 148.675 100.162 151.337 100.632 151.641C101.102 151.945 103.952 152.194 104.506 151.564C105.059 150.933 106.016 148.144 106.016 148.144Z" fill="white" stroke="#161616" stroke-width="0.683434" stroke-linecap="round" stroke-linejoin="round"/>
<path d="M90.5051 155.791L97.4278 151.458L100.316 155.111L85.1871 169.023L84.7278 159.366L90.5051 155.791Z" fill="#161616" stroke="#161616" stroke-width="0.683434" stroke-linecap="round" stroke-linejoin="round"/>
<path d="M85.2593 143.855C85.2593 143.855 86.3992 152.676 86.5542 156.173C86.7091 159.671 87.0079 167.883 87.0079 167.883L92.4864 166.97C92.4864 166.97 91.8002 156.555 90.6603 151.154C90.0131 147.996 88.9115 144.948 87.3898 142.106L85.2593 143.855Z" fill="#FF9D01" stroke="#161616" stroke-width="0.683434" stroke-linecap="round" stroke-linejoin="round"/>
<path d="M84.6504 142.638C85.7899 148.999 86.5292 155.425 86.8639 161.879C87.3177 171.911 83.7429 184.08 83.7429 184.08C83.7429 184.08 79.7917 186.205 70.8934 182.636C65.7254 180.583 60.7197 178.143 55.9189 175.337C55.9189 175.337 56.904 154.12 60.346 146.212C63.788 138.305 65.5145 134.658 69.0119 133.667C72.5093 132.677 84.6504 142.638 84.6504 142.638Z" fill="#161616" stroke="#161616" stroke-width="0.683434" stroke-linecap="round" stroke-linejoin="round"/>
<path d="M75.5306 138.686L77.3014 149.804L59.7205 147.457C59.7205 147.457 53.2737 172.692 53.1962 175.68C53.1187 178.668 57.0698 182.746 64.9057 185.181C72.7415 187.616 75.6247 189.055 78.1868 186.93C80.7489 184.805 83.9696 158.569 83.7206 155.83C83.4716 153.091 83.3443 151.879 83.3443 151.879L78.3251 149.748L76.499 139.234L75.5306 138.686Z" fill="white" stroke="#161616" stroke-width="0.683434" stroke-linecap="round" stroke-linejoin="round"/>
<path d="M70.661 127.586C70.661 127.586 66.6324 129.107 66.5549 131.387C66.4775 133.667 68.4586 135.72 69.1392 136.025C69.8199 136.329 80.3175 142.029 81.4574 142.333C82.5974 142.638 87.3897 140.817 87.3897 139.295C87.3897 137.773 75.6027 128.421 74.2359 127.281C72.869 126.141 70.661 127.586 70.661 127.586Z" fill="#FF9D01" stroke="#161616" stroke-width="0.683434" stroke-linecap="round" stroke-linejoin="round"/>
<path d="M75.0881 123.175C75.0881 123.175 72.1219 121.958 71.2863 123.325C70.4507 124.691 70.0689 126.977 70.6776 127.586C71.2863 128.194 78.8123 140.358 81.4741 142.333C84.1358 144.309 84.7445 144.923 86.0394 143.993C87.3343 143.064 89.155 141.558 89.9906 139.566C90.8262 137.574 92.0436 137.286 90.1455 134.697C88.2474 132.107 87.8601 131.963 87.8601 131.963L75.0881 123.175Z" fill="#FF9D01" stroke="#161616" stroke-width="0.683434" stroke-linecap="round" stroke-linejoin="round"/>
<path d="M95.6017 123.325C95.6017 123.325 94.3068 126.141 93.7756 126.75C93.2443 127.359 92.4087 127.359 92.4087 127.967C92.4087 128.576 92.8625 131.005 92.3312 131.387C91.8 131.769 89.4426 132.074 89.4426 132.074C89.4426 132.074 87.3121 135.267 86.399 135.571C85.4859 135.875 83.206 134.503 81.5348 133.518C79.8636 132.533 77.4287 128.803 76.1338 126.75C74.8389 124.697 74.767 123.48 75.0713 123.175C75.3757 122.871 74.767 118.687 81.3799 117.547C87.9927 116.407 92.1044 117.702 93.2443 119.069C94.3843 120.436 95.6017 123.325 95.6017 123.325Z" fill="white" stroke="#161616" stroke-width="0.683434" stroke-linecap="round" stroke-linejoin="round"/>
<path d="M90.5218 127.669C90.2617 128.111 89.9076 128.388 89.7305 128.283C89.5534 128.178 89.6198 127.729 89.8799 127.292C90.14 126.855 90.4941 126.573 90.6712 126.678C90.8483 126.783 90.7819 127.22 90.5218 127.669Z" fill="#161616"/>
<path d="M92.088 126.479C92.088 126.479 90.8485 125.671 89.8745 126.169" stroke="#161616" stroke-width="0.683434" stroke-linecap="round" stroke-linejoin="round"/>
<path d="M88.2363 132.062C87.8436 131.855 87.508 131.554 87.259 131.187C87.01 130.819 86.8553 130.396 86.8086 129.954" stroke="#161616" stroke-width="0.683434" stroke-linecap="round" stroke-linejoin="round"/>
<path d="M77.7333 107.664C77.7333 107.664 74.1585 110.857 73.7047 115.345C73.2509 119.833 74.5348 122.417 75.0881 123.175C75.6415 123.933 76.8368 123.629 77.8274 122.871C78.8179 122.113 80.5611 120.287 82.2544 120.364C83.9477 120.441 85.0656 120.364 85.0656 120.364C84.2733 122.279 83.2513 124.091 82.022 125.759C81.3666 126.642 80.6251 127.458 79.8085 128.194C79.8085 128.194 84.1414 124.697 85.5857 123.557C87.0301 122.417 87.8657 119.982 87.8657 119.982V121.642L91.1361 123.087L92.7963 120.58L92.1156 123.618C92.1156 123.618 92.7963 123.773 93.7094 124.077C94.8108 124.321 95.9307 124.473 97.0573 124.531C97.0573 124.531 98.0479 119.589 98.0479 116.474C98.0479 113.358 93.8532 108.3 89.1384 106.751C84.4236 105.201 79.7089 105.915 77.7333 107.664Z" fill="#161616" stroke="#161616" stroke-width="0.683434" stroke-linecap="round" stroke-linejoin="round"/>
<path d="M77.7331 107.664C76.1609 106.375 74.2703 105.534 72.2602 105.229C68.9897 104.775 66.5549 107.996 65.7967 110.021C65.3353 111.1 65.2287 112.298 65.4924 113.441L71.3471 115.267C71.3471 115.267 72.3321 109.794 74.1583 108.804C75.1422 108.221 76.3009 108.005 77.4288 108.195L77.7331 107.664Z" fill="#161616" stroke="#161616" stroke-width="0.683434" stroke-linecap="round" stroke-linejoin="round"/>
<path d="M81.8391 122.185C81.8391 122.185 81.081 118.538 78.9505 118.765C76.82 118.992 77.2018 124.924 77.9599 125.405C78.7181 125.887 80.1735 125.256 80.1735 125.256" fill="white"/>
<path d="M81.8391 122.185C81.8391 122.185 81.081 118.538 78.9505 118.765C76.82 118.992 77.2018 124.924 77.9599 125.405C78.7181 125.887 80.1735 125.256 80.1735 125.256" stroke="#161616" stroke-width="0.683434" stroke-linecap="round" stroke-linejoin="round"/>
<path d="M91.9495 150.318C91.9495 150.318 93.5487 147.812 93.7756 147.28C94.0025 146.749 95.0705 140.358 95.6018 139.826C96.133 139.295 99.2485 138.382 100.388 138C101.528 137.618 103.355 137.165 103.432 137.546C103.51 137.928 101.838 138.531 100.997 139.14C100.156 139.749 98.9442 142.184 98.3355 143.932C97.7267 145.681 97.6548 147.585 96.8192 148.42C95.9836 149.256 93.6262 152.222 93.6262 152.222L91.9495 150.318Z" fill="white" stroke="#161616" stroke-width="0.683434" stroke-linecap="round" stroke-linejoin="round"/>
<path d="M63.5889 145.93C63.5889 145.93 70.661 169.172 71.7291 169.327C72.7971 169.482 94.235 153.511 94.235 153.511L92.2428 149.178L78.4084 154.347C78.4084 154.347 76.051 140.662 75.2873 139.749C74.5236 138.836 69.51 135.72 66.0901 139.14" fill="#161616"/>
<path d="M63.5889 145.93C63.5889 145.93 70.661 169.172 71.7291 169.327C72.7971 169.482 94.235 153.511 94.235 153.511L92.2428 149.178L78.4084 154.347C78.4084 154.347 76.051 140.662 75.2873 139.749C74.5236 138.836 69.51 135.72 66.0901 139.14" stroke="#161616" stroke-width="0.683434" stroke-linecap="round" stroke-linejoin="round"/>
<path d="M106.149 26.793L102.453 21.5082H87.9817L84.2796 26.793C82.3181 29.5903 81.3123 32.9463 81.412 36.3614C81.5117 39.7765 82.7116 43.0681 84.833 45.7462L86.5429 47.9099H103.864L105.579 45.7462C107.704 43.0703 108.907 39.7795 109.01 36.3642C109.113 32.9489 108.109 29.5917 106.149 26.793Z" fill="white" stroke="#161616" stroke-width="0.683434" stroke-linecap="round" stroke-linejoin="round"/>
<path d="M84.2798 26.793H91.0808" stroke="#161616" stroke-width="0.683434" stroke-linecap="round" stroke-linejoin="round"/>
<path d="M98.5956 28.9567H92.8682" stroke="#161616" stroke-width="0.683434" stroke-linecap="round" stroke-linejoin="round"/>
<path d="M108.794 38.9785H95.375" stroke="#161616" stroke-width="0.683434" stroke-linecap="round" stroke-linejoin="round"/>
<path d="M84.2798 38.8013H89.4705" stroke="#161616" stroke-width="0.683434" stroke-linecap="round" stroke-linejoin="round"/>
<path d="M102.176 36.1174H98.0591" stroke="#161616" stroke-width="0.683434" stroke-linecap="round" stroke-linejoin="round"/>
<path d="M89.6475 42.7358H93.2278" stroke="#161616" stroke-width="0.683434" stroke-linecap="round" stroke-linejoin="round"/>
<path d="M103.249 23.2292H100.206" stroke="#161616" stroke-width="0.683434" stroke-linecap="round" stroke-linejoin="round"/>
<path d="M95.2146 21.4861V1" stroke="#161616" stroke-width="0.683434" stroke-linecap="round" stroke-linejoin="round"/>
<path d="M150.104 26.793L146.408 21.5082H131.937L128.212 26.793C126.251 29.5903 125.245 32.9463 125.345 36.3614C125.445 39.7765 126.644 43.0681 128.766 45.7462L130.476 47.9099H147.785L149.501 45.7462C151.63 43.0735 152.838 39.7848 152.947 36.3696C153.056 32.9545 152.059 29.5956 150.104 26.793Z" fill="white" stroke="#161616" stroke-width="0.683434" stroke-linecap="round" stroke-linejoin="round"/>
<path d="M128.235 26.793H135.036" stroke="#161616" stroke-width="0.683434" stroke-linecap="round" stroke-linejoin="round"/>
<path d="M142.551 28.9567H136.823" stroke="#161616" stroke-width="0.683434" stroke-linecap="round" stroke-linejoin="round"/>
<path d="M152.75 38.9785H139.33" stroke="#161616" stroke-width="0.683434" stroke-linecap="round" stroke-linejoin="round"/>
<path d="M128.235 38.8013H133.425" stroke="#161616" stroke-width="0.683434" stroke-linecap="round" stroke-linejoin="round"/>
<path d="M146.131 36.1174H142.014" stroke="#161616" stroke-width="0.683434" stroke-linecap="round" stroke-linejoin="round"/>
<path d="M133.602 42.7358H137.183" stroke="#161616" stroke-width="0.683434" stroke-linecap="round" stroke-linejoin="round"/>
<path d="M147.204 23.2292H144.161" stroke="#161616" stroke-width="0.683434" stroke-linecap="round" stroke-linejoin="round"/>
<path d="M139.169 21.4861V1" stroke="#161616" stroke-width="0.683434" stroke-linecap="round" stroke-linejoin="round"/>
<path d="M194.065 26.793L190.368 21.5082H175.892L172.19 26.793C170.228 29.5903 169.222 32.9463 169.322 36.3614C169.422 39.7765 170.622 43.0681 172.743 45.7462L174.453 47.9099H191.763L193.511 45.7683C195.638 43.0883 196.841 39.7924 196.941 36.3726C197.04 32.9528 196.032 29.5924 194.065 26.793Z" fill="white" stroke="#161616" stroke-width="0.683434" stroke-linecap="round" stroke-linejoin="round"/>
<path d="M172.19 26.793H178.991" stroke="#161616" stroke-width="0.683434" stroke-linecap="round" stroke-linejoin="round"/>
<path d="M186.506 28.9567H180.778" stroke="#161616" stroke-width="0.683434" stroke-linecap="round" stroke-linejoin="round"/>
<path d="M196.704 38.9785H183.285" stroke="#161616" stroke-width="0.683434" stroke-linecap="round" stroke-linejoin="round"/>
<path d="M172.19 38.8013H177.38" stroke="#161616" stroke-width="0.683434" stroke-linecap="round" stroke-linejoin="round"/>
<path d="M190.08 36.1174H185.969" stroke="#161616" stroke-width="0.683434" stroke-linecap="round" stroke-linejoin="round"/>
<path d="M177.557 42.7358H181.138" stroke="#161616" stroke-width="0.683434" stroke-linecap="round" stroke-linejoin="round"/>
<path d="M191.16 23.2292H188.116" stroke="#161616" stroke-width="0.683434" stroke-linecap="round" stroke-linejoin="round"/>
<path d="M183.124 21.4861V1" stroke="#161616" stroke-width="0.683434" stroke-linecap="round" stroke-linejoin="round"/>
<path d="M0 258.886H267" stroke="#161616" stroke-width="0.683434" stroke-miterlimit="10"/>
</svg>
