<svg width="274" height="241" viewBox="0 0 274 241" fill="none" xmlns="http://www.w3.org/2000/svg">
<path d="M261.461 119.012H15.2065V130.428H261.461V119.012Z" fill="#161616"/>
<path d="M264.76 44.4234H11.5525V125.965H264.76V44.4234Z" fill="white"/>
<path d="M93.9277 44.4234V85.2738H87.6129C79.6426 86.1137 74.9893 79.805 76.6753 70.1242C78.3613 60.4435 51.0051 75.5992 44.6964 70.1242C40.2269 66.2556 55.9957 52.271 65.5906 44.4234H93.9277ZM218.269 66.556C222.935 77.5917 272.313 46.8758 261.308 64.5574C250.303 82.2389 238.955 94.2494 263.644 88.9155L264.76 88.6519V44.4234H241.334C230.132 50.2662 215.296 59.5545 218.269 66.556Z" fill="#FF9D01"/>
<path opacity="0.5" d="M93.9277 44.4234V85.2738H87.6129C79.6426 86.1137 74.9893 79.805 76.6753 70.1242C78.3613 60.4435 51.0051 75.5992 44.6964 70.1242C40.2269 66.2556 55.9957 52.271 65.5906 44.4234H93.9277ZM218.269 66.556C222.935 77.5917 272.313 46.8758 261.308 64.5574C250.303 82.2389 238.955 94.2494 263.644 88.9155L264.76 88.6519V44.4234H241.334C230.132 50.2662 215.296 59.5545 218.269 66.556Z" fill="white"/>
<path d="M264.76 44.4234H11.5525V125.965H264.76V44.4234Z" stroke="#161616" stroke-width="0.679427" stroke-linecap="round" stroke-linejoin="round"/>
<path d="M182.538 44.4234H93.7683V125.965H182.538V44.4234Z" fill="white"/>
<path d="M152.919 87.953C143.19 93.152 115.092 115.843 102.732 125.965H182.544V45.4289C172.122 49.6715 132.399 66.2373 130.21 72.6257C127.685 79.9828 165.537 81.209 152.919 87.953Z" fill="#FF9D01"/>
<path opacity="0.5" d="M152.919 87.953C143.19 93.152 115.092 115.843 102.732 125.965H182.544V45.4289C172.122 49.6715 132.399 66.2373 130.21 72.6257C127.685 79.9828 165.537 81.209 152.919 87.953Z" fill="white"/>
<path d="M182.538 44.4234H93.7683V125.965H182.538V44.4234Z" stroke="#161616" stroke-width="0.679427" stroke-linecap="round" stroke-linejoin="round"/>
<path d="M188.393 75.452C191.023 81.2274 198.417 85.6539 201.979 86.7268C201.979 86.7268 211.519 90.062 218.674 84.5319C225.828 79.0019 227.404 68.2727 220.654 57.8256C213.904 47.3785 199.484 49.6286 193.304 55.5081C187.124 61.3877 185.769 69.6767 188.393 75.452ZM208.355 65.8817C210.679 67.9049 210.808 70.7864 208.509 72.1781C207.862 72.5482 207.128 72.7368 206.383 72.7238C205.639 72.7109 204.911 72.4969 204.278 72.1046C203.557 71.7127 203.009 71.0645 202.742 70.2881C202.475 69.5117 202.509 68.6635 202.838 67.911C203.512 66.2679 206.05 63.8523 208.355 65.8817Z" fill="white" stroke="#161616" stroke-width="0.679427" stroke-miterlimit="10"/>
<path d="M193.641 56.3235C192.746 59.1867 192.311 60.0021 190.833 61.4122C189.355 62.8223 188.571 65.1704 188.748 66.4089C188.96 67.8784 189.026 69.3652 188.945 70.8477C188.912 71.8643 189.116 72.8746 189.542 73.7984C189.967 74.7222 190.603 75.534 191.397 76.1693C192.704 77.1223 193.828 78.3043 194.714 79.6578C196.008 81.4419 195.584 81.8466 197.522 82.8214C199.459 83.7962 203.119 85.7458 203.119 85.7458C203.119 85.7458 207.301 87.5851 209.177 86.8249C211.053 86.0646 213.284 83.3241 214.744 82.7417C216.203 82.1592 216.883 83.7226 218.815 80.9024C220.746 78.0822 221.31 75.9118 222.493 74.8021C223.676 73.6924 223.958 69.787 222.352 68.101C220.73 66.5391 219.784 64.4046 219.716 62.154C219.477 59.3645 218.692 57.6907 215.731 56.6914C212.769 55.692 210.556 53.16 209.446 52.2035C208.337 51.2471 205.339 51.4801 203.457 52.461C201.574 53.442 199.864 51.8479 197.884 52.7369C197.27 53.0189 196.657 53.1967 196.173 53.3991C195.648 53.7063 195.141 54.042 194.653 54.4045C194.186 54.9674 193.842 55.6208 193.641 56.3235ZM203.095 66.4947C204.321 66.7277 205.002 64.4777 207.166 64.4286C209.33 64.3796 208.067 65.5873 208.392 65.9C208.896 66.3339 209.323 66.8501 209.655 67.4266C210.024 67.8991 210.273 68.4548 210.378 69.0452C210.343 70.0508 210.645 71.0392 211.237 71.8532C211.93 72.7973 210.385 72.8648 209.036 73.1406C207.687 73.4165 207.589 73.3062 206.534 74.1032C205.48 74.9002 203.972 73.5269 203.972 73.5269C203.972 73.5269 203.052 73.1958 202.163 71.6263C201.274 70.0568 202.212 69.787 201.415 68.5118C200.618 67.2366 201.863 66.225 203.095 66.4947Z" fill="white" stroke="#161616" stroke-width="0.679427" stroke-miterlimit="10"/>
<path d="M203.671 58.9354C204.26 58.9354 204.738 58.4578 204.738 57.8686C204.738 57.2794 204.26 56.8018 203.671 56.8018C203.082 56.8018 202.604 57.2794 202.604 57.8686C202.604 58.4578 203.082 58.9354 203.671 58.9354Z" fill="white" stroke="#161616" stroke-width="0.679427" stroke-miterlimit="10"/>
<path d="M197.265 60.9218C197.518 60.9218 197.724 60.7159 197.724 60.462C197.724 60.208 197.518 60.0021 197.265 60.0021C197.011 60.0021 196.805 60.208 196.805 60.462C196.805 60.7159 197.011 60.9218 197.265 60.9218Z" fill="white" stroke="#161616" stroke-width="0.679427" stroke-miterlimit="10"/>
<path d="M199.932 55.8822C200.311 55.8822 200.618 55.5747 200.618 55.1955C200.618 54.8163 200.311 54.5089 199.932 54.5089C199.552 54.5089 199.245 54.8163 199.245 55.1955C199.245 55.5747 199.552 55.8822 199.932 55.8822Z" fill="white" stroke="#161616" stroke-width="0.679427" stroke-miterlimit="10"/>
<path d="M196.651 65.802C196.651 66.0445 196.579 66.2816 196.445 66.4832C196.31 66.6849 196.118 66.842 195.894 66.9348C195.67 67.0276 195.424 67.0519 195.186 67.0046C194.948 66.9573 194.73 66.8405 194.558 66.669C194.387 66.4976 194.27 66.2791 194.223 66.0412C194.175 65.8034 194.2 65.5568 194.292 65.3328C194.385 65.1087 194.542 64.9172 194.744 64.7825C194.946 64.6477 195.183 64.5758 195.425 64.5758C195.75 64.5758 196.062 64.705 196.292 64.9349C196.522 65.1649 196.651 65.4768 196.651 65.802Z" fill="white" stroke="#161616" stroke-width="0.679427" stroke-miterlimit="10"/>
<path d="M210.844 61.9149C210.844 62.081 210.795 62.2434 210.703 62.3816C210.611 62.5197 210.479 62.6273 210.326 62.6909C210.172 62.7545 210.004 62.7711 209.841 62.7387C209.678 62.7063 209.528 62.6263 209.411 62.5088C209.293 62.3914 209.213 62.2417 209.181 62.0788C209.148 61.9158 209.165 61.747 209.228 61.5935C209.292 61.44 209.4 61.3088 209.538 61.2165C209.676 61.1242 209.838 61.075 210.004 61.075C210.115 61.0742 210.225 61.0953 210.327 61.1373C210.429 61.1792 210.522 61.241 210.6 61.3192C210.678 61.3973 210.74 61.4902 210.782 61.5925C210.824 61.6948 210.845 61.8044 210.844 61.9149Z" fill="white" stroke="#161616" stroke-width="0.679427" stroke-miterlimit="10"/>
<path d="M210.618 57.562C210.997 57.562 211.304 57.2546 211.304 56.8753C211.304 56.4961 210.997 56.1887 210.618 56.1887C210.238 56.1887 209.931 56.4961 209.931 56.8753C209.931 57.2546 210.238 57.562 210.618 57.562Z" fill="white" stroke="#161616" stroke-width="0.679427" stroke-miterlimit="10"/>
<path d="M216.939 62.6752C216.939 62.8717 216.88 63.0637 216.771 63.227C216.662 63.3904 216.507 63.5176 216.325 63.5928C216.144 63.668 215.944 63.6877 215.752 63.6493C215.559 63.611 215.382 63.5164 215.243 63.3775C215.104 63.2386 215.01 63.0616 214.971 62.869C214.933 62.6763 214.953 62.4766 215.028 62.2951C215.103 62.1137 215.23 61.9585 215.394 61.8494C215.557 61.7403 215.749 61.682 215.945 61.682C216.208 61.6836 216.46 61.7888 216.646 61.9747C216.832 62.1606 216.937 62.4123 216.939 62.6752Z" fill="white" stroke="#161616" stroke-width="0.679427" stroke-miterlimit="10"/>
<path d="M218.165 71.0685C218.165 71.2346 218.115 71.397 218.023 71.5351C217.931 71.6732 217.8 71.7809 217.646 71.8445C217.493 71.908 217.324 71.9247 217.161 71.8923C216.998 71.8598 216.848 71.7799 216.731 71.6624C216.613 71.5449 216.533 71.3953 216.501 71.2323C216.469 71.0694 216.485 70.9005 216.549 70.747C216.612 70.5936 216.72 70.4624 216.858 70.3701C216.996 70.2778 217.159 70.2285 217.325 70.2285C217.548 70.2285 217.761 70.317 217.919 70.4745C218.076 70.632 218.165 70.8457 218.165 71.0685Z" fill="white" stroke="#161616" stroke-width="0.679427" stroke-miterlimit="10"/>
<path d="M212.984 79.6885C212.985 79.8706 212.932 80.049 212.832 80.2011C212.732 80.3531 212.589 80.4719 212.421 80.5425C212.253 80.613 212.068 80.6321 211.889 80.5973C211.71 80.5625 211.546 80.4754 211.416 80.3471C211.287 80.2187 211.199 80.0548 211.163 79.8763C211.127 79.6977 211.145 79.5125 211.214 79.3441C211.284 79.1757 211.401 79.0317 211.553 78.9304C211.704 78.8291 211.882 78.775 212.064 78.775C212.307 78.775 212.54 78.871 212.713 79.0422C212.885 79.2133 212.982 79.4456 212.984 79.6885Z" fill="white" stroke="#161616" stroke-width="0.679427" stroke-miterlimit="10"/>
<path d="M202.298 82.4351C203.056 82.4351 203.671 81.8203 203.671 81.0618C203.671 80.3033 203.056 79.6885 202.298 79.6885C201.539 79.6885 200.925 80.3033 200.925 81.0618C200.925 81.8203 201.539 82.4351 202.298 82.4351Z" fill="white" stroke="#161616" stroke-width="0.679427" stroke-miterlimit="10"/>
<path d="M197.185 73.435C197.564 73.435 197.872 73.1275 197.872 72.7483C197.872 72.3691 197.564 72.0616 197.185 72.0616C196.806 72.0616 196.498 72.3691 196.498 72.7483C196.498 73.1275 196.806 73.435 197.185 73.435Z" fill="white" stroke="#161616" stroke-width="0.679427" stroke-miterlimit="10"/>
<path d="M204.591 76.1816C204.591 76.3028 204.555 76.4214 204.487 76.5222C204.42 76.623 204.324 76.7016 204.212 76.748C204.1 76.7944 203.977 76.8065 203.858 76.7829C203.739 76.7592 203.63 76.7008 203.544 76.6151C203.458 76.5294 203.4 76.4201 203.376 76.3012C203.353 76.1823 203.365 76.059 203.411 75.9469C203.458 75.8349 203.536 75.7392 203.637 75.6718C203.738 75.6044 203.856 75.5685 203.978 75.5685C204.14 75.5685 204.296 75.6331 204.411 75.7481C204.526 75.863 204.591 76.019 204.591 76.1816Z" fill="white" stroke="#161616" stroke-width="0.679427" stroke-miterlimit="10"/>
<path d="M192.531 69.5602C192.531 69.6657 192.5 69.7689 192.441 69.8566C192.383 69.9443 192.3 70.0127 192.202 70.053C192.105 70.0934 191.997 70.104 191.894 70.0834C191.79 70.0628 191.695 70.012 191.621 69.9374C191.546 69.8628 191.495 69.7678 191.475 69.6643C191.454 69.5608 191.465 69.4536 191.505 69.3561C191.546 69.2587 191.614 69.1754 191.702 69.1167C191.789 69.0581 191.893 69.0269 191.998 69.0269C192.139 69.0269 192.275 69.083 192.375 69.1831C192.475 69.2831 192.531 69.4188 192.531 69.5602Z" fill="white" stroke="#161616" stroke-width="0.679427" stroke-miterlimit="10"/>
<path d="M196.805 55.7349C196.805 55.8259 196.778 55.9148 196.727 55.9904C196.677 56.066 196.605 56.125 196.521 56.1598C196.437 56.1946 196.344 56.2037 196.255 56.1859C196.166 56.1682 196.084 56.1244 196.02 56.0601C195.955 55.9958 195.912 55.9139 195.894 55.8247C195.876 55.7355 195.885 55.643 195.92 55.559C195.955 55.475 196.014 55.4032 196.089 55.3526C196.165 55.3021 196.254 55.2751 196.345 55.2751C196.405 55.2743 196.466 55.2856 196.522 55.3085C196.578 55.3313 196.629 55.3651 196.672 55.408C196.715 55.4508 196.749 55.5018 196.771 55.558C196.794 55.6142 196.805 55.6743 196.805 55.7349Z" fill="white" stroke="#161616" stroke-width="0.679427" stroke-miterlimit="10"/>
<path d="M202.451 61.9149C202.451 61.9649 202.442 62.0143 202.423 62.0604C202.403 62.1065 202.375 62.1484 202.34 62.1837C202.305 62.219 202.263 62.247 202.217 62.2661C202.171 62.2852 202.121 62.2951 202.071 62.2951C201.978 62.2832 201.892 62.2378 201.83 62.1672C201.768 62.0967 201.734 62.0059 201.734 61.9119C201.734 61.8178 201.768 61.727 201.83 61.6565C201.892 61.586 201.978 61.5405 202.071 61.5287C202.173 61.5303 202.269 61.5717 202.34 61.644C202.412 61.7162 202.451 61.8136 202.451 61.9149Z" fill="white" stroke="#161616" stroke-width="0.679427" stroke-miterlimit="10"/>
<path d="M213.591 67.255C213.591 67.3605 213.56 67.4636 213.501 67.5513C213.443 67.6391 213.359 67.7074 213.262 67.7478C213.164 67.7882 213.057 67.7987 212.954 67.7781C212.85 67.7576 212.755 67.7068 212.681 67.6322C212.606 67.5576 212.555 67.4625 212.535 67.3591C212.514 67.2556 212.525 67.1484 212.565 67.0509C212.605 66.9534 212.674 66.8701 212.761 66.8115C212.849 66.7529 212.952 66.7216 213.058 66.7216C213.128 66.7216 213.197 66.7354 213.262 66.7622C213.327 66.789 213.385 66.8283 213.435 66.8778C213.485 66.9274 213.524 66.9862 213.551 67.0509C213.577 67.1156 213.591 67.185 213.591 67.255Z" fill="white" stroke="#161616" stroke-width="0.679427" stroke-miterlimit="10"/>
<path d="M218.631 75.8751C218.632 76.0573 218.579 76.2357 218.479 76.3877C218.378 76.5398 218.235 76.6586 218.067 76.7291C217.899 76.7997 217.714 76.8188 217.535 76.784C217.356 76.7492 217.192 76.6621 217.063 76.5337C216.934 76.4054 216.845 76.2415 216.809 76.063C216.773 75.8844 216.791 75.6992 216.861 75.5308C216.93 75.3624 217.048 75.2184 217.199 75.1171C217.351 75.0157 217.529 74.9616 217.711 74.9616C217.831 74.9608 217.951 74.9839 218.062 75.0294C218.174 75.0749 218.275 75.1421 218.361 75.227C218.446 75.3119 218.514 75.4129 218.56 75.5241C218.607 75.6354 218.631 75.7547 218.631 75.8751Z" fill="white" stroke="#161616" stroke-width="0.679427" stroke-miterlimit="10"/>
<path d="M200.465 68.3341C200.465 68.5005 200.415 68.6631 200.323 68.8014C200.23 68.9396 200.099 69.0473 199.945 69.1107C199.791 69.1741 199.622 69.1903 199.459 69.1574C199.296 69.1245 199.146 69.0439 199.029 68.9258C198.912 68.8077 198.832 68.6575 198.8 68.4942C198.769 68.3308 198.786 68.1618 198.851 68.0084C198.915 67.855 199.024 67.7243 199.163 67.6327C199.302 67.5412 199.465 67.4929 199.631 67.4942C199.741 67.4942 199.85 67.5159 199.951 67.5582C200.053 67.6005 200.145 67.6625 200.223 67.7405C200.3 67.8186 200.362 67.9113 200.403 68.0131C200.445 68.115 200.466 68.2241 200.465 68.3341Z" fill="white" stroke="#161616" stroke-width="0.679427" stroke-miterlimit="10"/>
<path d="M196.651 75.8751C196.651 75.9964 196.616 76.1149 196.548 76.2157C196.481 76.3166 196.385 76.3951 196.273 76.4415C196.161 76.4879 196.038 76.5001 195.919 76.4764C195.8 76.4528 195.691 76.3944 195.605 76.3086C195.519 76.2229 195.461 76.1136 195.437 75.9947C195.413 75.8758 195.426 75.7525 195.472 75.6405C195.518 75.5285 195.597 75.4327 195.698 75.3654C195.799 75.298 195.917 75.262 196.038 75.262C196.201 75.262 196.357 75.3266 196.472 75.4416C196.587 75.5566 196.651 75.7125 196.651 75.8751Z" fill="white" stroke="#161616" stroke-width="0.679427" stroke-miterlimit="10"/>
<path d="M193.298 64.4287C193.299 64.5805 193.255 64.7293 193.172 64.8561C193.088 64.983 192.969 65.0821 192.829 65.1411C192.689 65.2 192.535 65.2161 192.386 65.1872C192.237 65.1583 192.1 65.0858 191.992 64.9789C191.884 64.872 191.81 64.7354 191.78 64.5866C191.75 64.4378 191.765 64.2834 191.823 64.143C191.881 64.0026 191.979 63.8825 192.105 63.7981C192.231 63.7136 192.38 63.6685 192.531 63.6685C192.734 63.6685 192.928 63.7484 193.071 63.8908C193.215 64.0331 193.296 64.2265 193.298 64.4287Z" fill="white" stroke="#161616" stroke-width="0.679427" stroke-miterlimit="10"/>
<path d="M207.031 54.6621C207.032 54.7533 207.006 54.8428 206.957 54.9192C206.907 54.9956 206.836 55.0555 206.752 55.0912C206.668 55.127 206.575 55.137 206.485 55.1199C206.396 55.1029 206.313 55.0596 206.248 54.9955C206.184 54.9315 206.139 54.8495 206.121 54.7602C206.103 54.6708 206.111 54.5781 206.146 54.4937C206.181 54.4093 206.24 54.3371 206.315 54.2863C206.391 54.2355 206.48 54.2084 206.571 54.2084C206.692 54.2084 206.808 54.256 206.894 54.3409C206.98 54.4258 207.03 54.5412 207.031 54.6621Z" fill="white" stroke="#161616" stroke-width="0.679427" stroke-miterlimit="10"/>
<path d="M51.4834 73.76C51.237 73.7362 51.0025 73.6429 50.8071 73.4909C50.6117 73.3389 50.4635 73.1346 50.3798 72.9016C49.6462 70.8726 48.3467 69.0963 46.6351 67.7827C44.9235 66.4691 42.8714 65.6734 40.7217 65.4896C38.572 65.3057 36.4147 65.7416 34.5049 66.7455C32.5951 67.7494 31.0129 69.2793 29.9454 71.1543C29.825 71.3697 29.6457 71.5463 29.4286 71.6636C29.2115 71.7809 28.9654 71.8339 28.7193 71.8164L27.303 71.6938C27.0761 71.6732 26.8478 71.7129 26.6411 71.8088C26.4345 71.9048 26.2568 72.0536 26.1262 72.2403C25.9955 72.427 25.9165 72.6448 25.897 72.8718C25.8776 73.0988 25.9185 73.327 26.0155 73.5331L28.5476 79.1797C28.7499 79.6395 28.9522 80.0993 29.1239 80.5714C29.9018 82.7565 31.3337 84.6491 33.225 85.9919C35.1162 87.3348 37.3751 88.0627 39.6945 88.0767C42.0139 88.0908 44.2814 87.3903 46.1888 86.0706C48.0962 84.7508 49.5509 82.8757 50.3553 80.7002C50.7477 79.6272 51.1646 78.5543 51.6489 77.5182L52.5379 75.6176C52.632 75.4288 52.6782 75.2197 52.6724 75.0088C52.6667 74.7979 52.6092 74.5916 52.5051 74.4081C52.4009 74.2246 52.2533 74.0696 52.0751 73.9565C51.897 73.8435 51.6938 73.776 51.4834 73.76Z" fill="white" stroke="#161616" stroke-width="0.679427" stroke-miterlimit="10"/>
<path d="M51.4834 73.7599C51.237 73.7361 51.0025 73.6428 50.8071 73.4908C50.6117 73.3389 50.4635 73.1345 50.3798 72.9015C50.0946 72.1166 49.7224 71.366 49.2701 70.6638L47.1121 76.108C43.4987 80.0526 39.6518 83.7767 35.592 87.2602C36.9173 87.7841 38.3298 88.0525 39.7549 88.0511H40.2332C43.8501 85.7579 47.2762 83.1765 50.4779 80.3322C50.8397 79.3758 51.2075 78.4255 51.6428 77.5059L52.5318 75.6053C52.6231 75.4174 52.6673 75.21 52.6605 75.0012C52.6538 74.7924 52.5964 74.5884 52.4932 74.4067C52.39 74.2251 52.2441 74.0712 52.0682 73.9585C51.8923 73.8459 51.6916 73.7777 51.4834 73.7599Z" fill="white" stroke="#161616" stroke-width="0.679427" stroke-miterlimit="10"/>
<path d="M39.7669 81.6995C49.0344 81.6995 56.5473 74.1867 56.5473 64.9191C56.5473 55.6516 49.0344 48.1388 39.7669 48.1388C30.4994 48.1388 22.9866 55.6516 22.9866 64.9191C22.9866 74.1867 30.4994 81.6995 39.7669 81.6995Z" fill="white" stroke="#161616" stroke-width="0.679427" stroke-miterlimit="10"/>
<path d="M39.7672 79.4617C47.7988 79.4617 54.3097 72.9508 54.3097 64.9191C54.3097 56.8875 47.7988 50.3766 39.7672 50.3766C31.7355 50.3766 25.2246 56.8875 25.2246 64.9191C25.2246 72.9508 31.7355 79.4617 39.7672 79.4617Z" fill="white" stroke="#161616" stroke-width="0.679427" stroke-miterlimit="10"/>
<path d="M39.767 76.2122C46.0041 76.2122 51.0602 71.1561 51.0602 64.9191C51.0602 58.682 46.0041 53.6259 39.767 53.6259C33.53 53.6259 28.4739 58.682 28.4739 64.9191C28.4739 71.1561 33.53 76.2122 39.767 76.2122Z" fill="white" stroke="#161616" stroke-width="0.679427" stroke-miterlimit="10"/>
<path d="M32.594 57.047L18.7933 50.0577L17.6836 53.4727L30.7425 60.278C31.0567 60.4931 31.4285 60.6084 31.8092 60.6091C32.252 60.6418 32.6917 60.5134 33.0471 60.2473C33.4026 59.9813 33.6498 59.5957 33.7432 59.1617C33.8366 58.7276 33.7698 58.2745 33.5552 57.8858C33.3406 57.4971 32.9927 57.1992 32.5756 57.047H32.594Z" fill="white" stroke="#161616" stroke-width="0.679427" stroke-miterlimit="10"/>
<path d="M19.5655 51.6089C19.5655 51.9727 19.4576 52.3283 19.2555 52.6308C19.0534 52.9332 18.7662 53.169 18.4301 53.3082C18.094 53.4474 17.7242 53.4838 17.3674 53.4129C17.0106 53.3419 16.6829 53.1667 16.4257 52.9095C16.1684 52.6523 15.9933 52.3245 15.9223 51.9678C15.8513 51.611 15.8878 51.2412 16.027 50.9051C16.1662 50.569 16.4019 50.2817 16.7044 50.0796C17.0069 49.8775 17.3625 49.7697 17.7262 49.7697C18.214 49.7697 18.6819 49.9634 19.0268 50.3084C19.3717 50.6533 19.5655 51.1211 19.5655 51.6089Z" fill="white" stroke="#161616" stroke-width="0.679427" stroke-miterlimit="10"/>
<path d="M107.802 54.7418H144.594" stroke="#161616" stroke-width="0.679427" stroke-miterlimit="10"/>
<path d="M154.967 54.7418H170.374" stroke="#161616" stroke-width="0.679427" stroke-miterlimit="10"/>
<path d="M107.802 61.026H144.594" stroke="#161616" stroke-width="0.679427" stroke-miterlimit="10"/>
<path d="M154.967 61.026H170.374" stroke="#161616" stroke-width="0.679427" stroke-miterlimit="10"/>
<path d="M107.802 67.3163H144.594" stroke="#161616" stroke-width="0.679427" stroke-miterlimit="10"/>
<path d="M154.967 67.3163H170.374" stroke="#161616" stroke-width="0.679427" stroke-miterlimit="10"/>
<path d="M107.802 73.6066H144.594" stroke="#161616" stroke-width="0.679427" stroke-miterlimit="10"/>
<path d="M154.967 73.6066H170.374" stroke="#161616" stroke-width="0.679427" stroke-miterlimit="10"/>
<path d="M107.802 79.897H144.594" stroke="#161616" stroke-width="0.679427" stroke-miterlimit="10"/>
<path d="M154.967 79.897H170.374" stroke="#161616" stroke-width="0.679427" stroke-miterlimit="10"/>
<path d="M107.802 92.7842H144.594" stroke="#161616" stroke-width="0.679427" stroke-miterlimit="10"/>
<path d="M154.967 92.7842H170.374" stroke="#161616" stroke-width="0.679427" stroke-miterlimit="10"/>
<path d="M107.802 99.0745H144.594" stroke="#161616" stroke-width="0.679427" stroke-miterlimit="10"/>
<path d="M154.967 99.0745H170.374" stroke="#161616" stroke-width="0.679427" stroke-miterlimit="10"/>
<path d="M107.802 105.365H144.594" stroke="#161616" stroke-width="0.679427" stroke-miterlimit="10"/>
<path d="M154.967 105.365H170.374" stroke="#161616" stroke-width="0.679427" stroke-miterlimit="10"/>
<path d="M107.802 111.655H144.594" stroke="#161616" stroke-width="0.679427" stroke-miterlimit="10"/>
<path d="M154.967 111.655H170.374" stroke="#161616" stroke-width="0.679427" stroke-miterlimit="10"/>
<path d="M107.802 117.939H144.594" stroke="#161616" stroke-width="0.679427" stroke-miterlimit="10"/>
<path d="M154.967 117.939H170.374" stroke="#161616" stroke-width="0.679427" stroke-miterlimit="10"/>
<path d="M192.072 92.7842H228.863" stroke="#161616" stroke-width="0.679427" stroke-miterlimit="10"/>
<path d="M239.237 92.7842H254.644" stroke="#161616" stroke-width="0.679427" stroke-miterlimit="10"/>
<path d="M192.072 99.0745H228.863" stroke="#161616" stroke-width="0.679427" stroke-miterlimit="10"/>
<path d="M239.237 99.0745H254.644" stroke="#161616" stroke-width="0.679427" stroke-miterlimit="10"/>
<path d="M192.072 105.365H228.863" stroke="#161616" stroke-width="0.679427" stroke-miterlimit="10"/>
<path d="M239.237 105.365H254.644" stroke="#161616" stroke-width="0.679427" stroke-miterlimit="10"/>
<path d="M192.072 111.655H228.863" stroke="#161616" stroke-width="0.679427" stroke-miterlimit="10"/>
<path d="M239.237 111.655H254.644" stroke="#161616" stroke-width="0.679427" stroke-miterlimit="10"/>
<path d="M192.072 117.939H228.863" stroke="#161616" stroke-width="0.679427" stroke-miterlimit="10"/>
<path d="M239.237 117.939H254.644" stroke="#161616" stroke-width="0.679427" stroke-miterlimit="10"/>
<path d="M20.0747 93.4156H56.8603" stroke="#161616" stroke-width="0.679427" stroke-miterlimit="10"/>
<path d="M67.2397 93.4156H82.6468" stroke="#161616" stroke-width="0.679427" stroke-miterlimit="10"/>
<path d="M20.0747 99.7059H56.8603" stroke="#161616" stroke-width="0.679427" stroke-miterlimit="10"/>
<path d="M67.2397 99.7059H82.6468" stroke="#161616" stroke-width="0.679427" stroke-miterlimit="10"/>
<path d="M20.0747 105.996H56.8603" stroke="#161616" stroke-width="0.679427" stroke-miterlimit="10"/>
<path d="M67.2397 105.996H82.6468" stroke="#161616" stroke-width="0.679427" stroke-miterlimit="10"/>
<path d="M20.0747 112.281H56.8603" stroke="#161616" stroke-width="0.679427" stroke-miterlimit="10"/>
<path d="M67.2397 112.281H82.6468" stroke="#161616" stroke-width="0.679427" stroke-miterlimit="10"/>
<path d="M20.0747 118.571H56.8603" stroke="#161616" stroke-width="0.679427" stroke-miterlimit="10"/>
<path d="M67.2397 118.571H82.6468" stroke="#161616" stroke-width="0.679427" stroke-miterlimit="10"/>
<path d="M43.0655 152.328C43.0655 152.328 43.0655 149.967 39.7671 146.669C36.4687 143.37 34.3412 141.482 34.3412 141.482C34.3412 141.482 32.692 146.908 35.7575 150.206C38.0123 152.527 40.4568 154.656 43.0655 156.57V152.328Z" fill="#FF9D01"/>
<path d="M38.2775 167.042C38.2775 167.042 38.2775 164.688 34.9729 161.389C31.6683 158.091 29.5532 156.202 29.5532 156.202C29.5532 156.202 27.9039 161.622 30.9694 164.921C33.2224 167.243 35.6671 169.372 38.2775 171.285V167.042Z" fill="#FF9D01"/>
<path d="M42.8567 156.331C42.8567 156.331 43.102 153.989 46.7315 151.059C50.361 148.128 52.6723 146.473 52.6723 146.473C52.6723 146.473 53.7391 152.04 50.3426 154.995C47.8589 157.068 45.205 158.928 42.4092 160.556L42.8567 156.331Z" fill="#FF9D01"/>
<path d="M37.0694 173.719C37.0694 173.719 37.566 171.413 41.4837 168.875C45.4013 166.337 47.8721 164.945 47.8721 164.945C47.8721 164.945 48.338 170.586 44.6595 173.173C41.9703 174.972 39.1338 176.541 36.1804 177.863L37.0694 173.719Z" fill="#FF9D01"/>
<path d="M38.1606 192.669C38.1606 192.669 38.1606 190.309 41.4591 187.01C44.7575 183.712 46.8788 181.83 46.8788 181.83C46.8788 181.83 48.528 187.25 45.4626 190.548C43.2107 192.87 40.7682 194.998 38.1606 196.912V192.669Z" fill="#FF9D01"/>
<path d="M38.1056 197.292C38.1056 197.292 38.4367 194.962 35.6532 191.228C32.8698 187.495 31.0244 185.324 31.0244 185.324C31.0244 185.324 28.6211 190.456 31.1838 194.153C33.083 196.778 35.1995 199.239 37.5109 201.51L38.1056 197.292Z" fill="#FF9D01"/>
<path d="M34.8499 211.001C34.8499 211.001 34.8499 208.646 38.1483 205.348C41.4467 202.05 43.568 200.161 43.568 200.161C43.568 200.161 45.2172 205.581 42.1579 208.879C39.9049 211.202 37.4602 213.331 34.8499 215.243V211.001Z" fill="#FF9D01"/>
<path d="M37.0509 223.446C37.0509 223.446 36.4378 221.166 38.8105 217.138C41.1832 213.11 42.7404 210.749 42.7404 210.749C42.7404 210.749 45.7139 215.574 43.5865 219.541C41.459 223.508 37.5291 226.616 37.5291 226.616L37.0509 223.446Z" fill="#FF9D01"/>
<path d="M43.3598 151.715C43.1942 154.169 42.8933 156.613 42.4586 159.035C41.1527 165.779 37.891 170.12 36.5913 176.202C35.2915 182.283 39.0436 190.125 38.0259 197.948C37.0082 205.771 33.9795 210.112 34.8501 215.329C35.7207 220.547 39.1417 236.935 39.1417 236.935" stroke="#161616" stroke-width="0.679427" stroke-linecap="round" stroke-linejoin="round"/>
<path d="M42.8264 157.901L46.3762 155.172" stroke="#161616" stroke-width="0.679427" stroke-linecap="round" stroke-linejoin="round"/>
<path d="M42.9859 154.756L41.5022 152.113" stroke="#161616" stroke-width="0.679427" stroke-linecap="round" stroke-linejoin="round"/>
<path d="M36.7874 175.926C36.7874 175.926 39.7609 173.694 42.8263 171.462" stroke="#161616" stroke-width="0.679427" stroke-linecap="round" stroke-linejoin="round"/>
<path d="M38.2772 171.278C36.7998 168.412 35.0352 165.702 33.0107 163.192" stroke="#161616" stroke-width="0.679427" stroke-linecap="round" stroke-linejoin="round"/>
<path d="M38.2773 196.023C39.9803 192.888 42.1302 190.017 44.6596 187.501" stroke="#161616" stroke-width="0.679427" stroke-linecap="round" stroke-linejoin="round"/>
<path d="M37.6949 199.327C36.7945 197.197 35.7157 195.146 34.47 193.196C32.735 190.634 32.4897 190.303 32.4897 190.303" stroke="#161616" stroke-width="0.679427" stroke-linecap="round" stroke-linejoin="round"/>
<path d="M34.8499 215.335C35.6058 213.462 36.5014 211.648 37.5291 209.909C38.5523 208.302 39.7069 206.783 40.9808 205.366" stroke="#161616" stroke-width="0.679427" stroke-linecap="round" stroke-linejoin="round"/>
<path d="M37.3027 228.081C37.6125 226.09 38.1964 224.15 39.0378 222.318C40.264 219.915 41.6863 216.801 42.2627 215.538" stroke="#161616" stroke-width="0.679427" stroke-linecap="round" stroke-linejoin="round"/>
<path d="M16.1385 183.804C16.1385 183.804 15.881 182.326 17.5916 179.899C19.3021 177.471 20.4302 176.061 20.4302 176.061C20.4302 176.061 22.0549 179.279 20.4915 181.683C19.3305 183.383 18.0281 184.983 16.5984 186.465L16.1385 183.804Z" fill="#FF9D01"/>
<path d="M20.7491 192.516C20.7491 192.516 20.4977 191.038 22.2082 188.61C23.9187 186.183 25.0407 184.766 25.0407 184.766C25.0407 184.766 26.6654 187.991 25.102 190.388C23.9402 192.09 22.6379 193.692 21.2089 195.177L20.7491 192.516Z" fill="#FF9D01"/>
<path d="M16.7026 186.299C16.7026 186.299 16.2919 184.858 13.6985 183.411C11.1051 181.965 9.48041 181.18 9.48041 181.18C9.48041 181.18 9.41297 184.785 11.8653 186.275C13.649 187.303 15.5151 188.18 17.4445 188.899L16.7026 186.299Z" fill="#FF9D01"/>
<path d="M22.2204 196.569C22.2204 196.569 21.6564 195.177 18.9097 194.018C16.1631 192.859 14.4771 192.24 14.4771 192.24C14.4771 192.24 14.7897 195.833 17.3831 197.053C19.265 197.888 21.2132 198.565 23.2075 199.076L22.2204 196.569Z" fill="#FF9D01"/>
<path d="M23.5937 208.573C23.5937 208.573 23.3362 207.095 20.9084 205.385C18.4805 203.674 16.9478 202.724 16.9478 202.724C16.9478 202.724 16.5002 206.298 18.787 208.033C20.4515 209.246 22.2153 210.317 24.0596 211.234L23.5937 208.573Z" fill="#FF9D01"/>
<path d="M24.133 211.467C24.133 211.467 23.667 210.044 25.0158 207.396C26.3646 204.747 27.2781 203.214 27.2781 203.214C27.2781 203.214 29.3443 206.176 28.1365 208.775C27.2286 210.622 26.1683 212.39 24.9668 214.06L24.133 211.467Z" fill="#FF9D01"/>
<path d="M28.2716 223.391C28.2716 223.391 28.4433 221.901 30.7669 220.05C33.0905 218.198 34.5742 217.168 34.5742 217.168C34.5742 217.168 35.2241 220.712 33.0476 222.576C31.4538 223.88 29.7537 225.049 27.9651 226.07L28.2716 223.391Z" fill="#FF9D01"/>
<path d="M27.6584 219.713C27.6584 219.713 27.4009 218.235 24.973 216.525C22.5452 214.814 21.0125 213.858 21.0125 213.858C21.0125 213.858 20.5649 217.438 22.8517 219.173C24.5179 220.384 26.2814 221.454 28.1243 222.374L27.6584 219.713Z" fill="#FF9D01"/>
<path d="M27.6277 227.738C27.6277 227.738 27.7503 226.242 25.8374 223.974C23.9246 221.705 22.68 220.381 22.68 220.381C22.68 220.381 21.3435 223.728 23.1092 225.991C24.4137 227.583 25.8493 229.064 27.4008 230.417L27.6277 227.738Z" fill="#FF9D01"/>
<path d="M15.887 183.461C16.2554 184.981 16.7098 186.479 17.248 187.948C18.793 192.032 21.3128 194.404 22.7659 198.083C24.2189 201.761 22.7659 207.077 24.225 211.871C25.6842 216.666 28.1059 219.063 28.1059 222.429C28.1059 225.795 26.567 235.708 26.567 235.708" stroke="#161616" stroke-width="0.679427" stroke-linecap="round" stroke-linejoin="round"/>
<path d="M16.8924 187.28L14.3665 185.95" stroke="#161616" stroke-width="0.679427" stroke-linecap="round" stroke-linejoin="round"/>
<path d="M16.4512 185.324L17.0949 183.504" stroke="#161616" stroke-width="0.679427" stroke-linecap="round" stroke-linejoin="round"/>
<path d="M22.6374 197.923C22.6374 197.923 20.5283 196.85 18.3457 195.784" stroke="#161616" stroke-width="0.679427" stroke-linecap="round" stroke-linejoin="round"/>
<path d="M21.1965 195.177C21.82 193.216 22.6417 191.324 23.6489 189.53" stroke="#161616" stroke-width="0.679427" stroke-linecap="round" stroke-linejoin="round"/>
<path d="M23.8818 210.688C22.4807 208.909 20.8285 207.344 18.9771 206.041" stroke="#161616" stroke-width="0.679427" stroke-linecap="round" stroke-linejoin="round"/>
<path d="M24.6055 212.699C24.9437 211.268 25.3989 209.868 25.9665 208.512C26.7758 206.715 26.8923 206.482 26.8923 206.482" stroke="#161616" stroke-width="0.679427" stroke-linecap="round" stroke-linejoin="round"/>
<path d="M28.0139 224.979C28.8352 223.962 29.744 223.018 30.7299 222.159C31.3588 221.696 31.9493 221.184 32.4956 220.626" stroke="#161616" stroke-width="0.679427" stroke-linecap="round" stroke-linejoin="round"/>
<path d="M28.1061 222.429C27.4288 221.337 26.6705 220.298 25.8376 219.32C25.0148 218.431 24.1208 217.611 23.1646 216.868" stroke="#161616" stroke-width="0.679427" stroke-linecap="round" stroke-linejoin="round"/>
<path d="M27.4009 230.436C27.3109 229.295 26.9195 228.199 26.2667 227.26C25.2306 225.887 24.0044 224.072 23.5078 223.354" stroke="#161616" stroke-width="0.679427" stroke-linecap="round" stroke-linejoin="round"/>
<path d="M142.871 79.3697C142.871 79.3697 159.792 95.7208 160.553 103.893C161.313 112.066 148.763 118.724 152.38 121.385C155.997 124.046 165.868 131.084 162.073 137.166C158.278 143.248 156.371 144.774 157.702 146.105C159.032 147.435 162.263 148.557 162.073 151.807C161.883 155.056 158.082 157.846 158.082 157.846H97.9988C97.9988 157.846 94.7678 158.036 95.1479 153.474C95.528 148.913 101.99 146.442 100.85 143.015C99.7093 139.588 91.3406 136.933 91.3406 130.085C91.3406 123.236 101.23 120.392 102.75 117.161C104.271 113.93 97.8087 111.833 96.4783 107.652C95.1479 103.47 101.996 96.242 106.171 92.4408C110.346 88.6396 127.09 77.6101 133.76 77.23C140.431 76.8499 142.871 79.3697 142.871 79.3697Z" fill="#161616"/>
<path d="M147.408 83.7963C147.408 83.7963 156.604 99.8654 155.151 106.174C153.698 112.483 143.962 119.662 147.69 124.536C151.417 129.41 156.886 131.421 154.581 137.448C153.212 141.054 151.166 144.364 148.554 147.202" stroke="#858585" stroke-width="0.679427" stroke-linecap="round" stroke-linejoin="round"/>
<path d="M106.379 105.892C106.379 105.892 112.118 114.782 110.671 117.363C109.224 119.944 100.917 123.102 102.088 129.699C103.259 136.295 115.288 146.626 115.288 147.779" stroke="#858585" stroke-width="0.679427" stroke-linecap="round" stroke-linejoin="round"/>
<path d="M142.871 79.3697C142.871 79.3697 159.792 95.7208 160.553 103.893C161.313 112.066 148.763 118.724 152.38 121.385C155.997 124.046 165.868 131.084 162.073 137.166C158.278 143.248 156.371 144.774 157.702 146.105C159.032 147.435 162.263 148.557 162.073 151.807C161.883 155.056 158.082 157.846 158.082 157.846H97.9988C97.9988 157.846 94.7678 158.036 95.1479 153.474C95.528 148.913 101.99 146.442 100.85 143.015C99.7093 139.588 91.3406 136.933 91.3406 130.085C91.3406 123.236 101.23 120.392 102.75 117.161C104.271 113.93 97.8087 111.833 96.4783 107.652C95.1479 103.47 101.996 96.242 106.171 92.4408C110.346 88.6396 127.09 77.6101 133.76 77.23C140.431 76.8499 142.871 79.3697 142.871 79.3697Z" stroke="#161616" stroke-width="0.679427" stroke-linecap="round" stroke-linejoin="round"/>
<path d="M164.593 148.815C164.593 148.815 187.584 184.681 190.956 188.972C194.328 193.264 190.649 200.314 185.438 203.993C180.227 207.672 171.502 204.459 166.978 199.781C162.453 195.103 157.849 184.068 157.849 184.068L164.593 148.815Z" fill="white" stroke="#161616" stroke-width="0.679427" stroke-linecap="round" stroke-linejoin="round"/>
<path d="M125.968 136.859C125.968 136.859 104.509 143.297 97.7653 145.749C91.0213 148.202 89.1821 148.508 89.1821 150.96C89.1821 152.389 94.3014 180.168 93.7802 203.993C93.4063 221.209 87.3428 236.793 87.3428 236.793H165.512C165.512 236.793 159.099 222.171 159.075 204.606C159.038 179.99 165.31 149.894 164.592 148.815C163.366 146.975 128.727 136.553 125.968 136.859Z" fill="white" stroke="#161616" stroke-width="0.679427" stroke-linecap="round" stroke-linejoin="round"/>
<path d="M159.308 210.394C156.5 208.205 152.852 204.606 151.105 199.701C148.389 192.093 146.39 151.267 145.973 142.071C144.52 141.629 143.061 141.188 141.627 140.765L142.24 179.163H114.957L112.572 140.961C111.119 141.409 109.654 141.868 108.219 142.322C108.25 150.078 108.25 186.256 106.067 196.636C104.393 204.606 97.4226 209.983 93.1922 212.576C92.1665 220.834 90.219 228.951 87.3862 236.775H165.556C162.156 228.346 160.05 219.452 159.308 210.394Z" fill="#161616"/>
<path d="M109.089 142.04L108.194 142.322C108.225 150.078 108.225 186.256 106.042 196.636C105.92 197.212 105.766 197.764 105.595 198.31V236.793H109.089V142.04Z" fill="#424242"/>
<path d="M123.834 179.163H120.34V236.794H123.834V179.163Z" fill="#424242"/>
<path d="M90.8501 225.114V236.763H94.3202V211.798C93.9033 212.074 93.4987 212.337 93.1247 212.57C92.6108 216.792 91.8513 220.981 90.8501 225.114Z" fill="#424242"/>
<path d="M101.714 205.287C100.654 206.576 99.4867 207.773 98.2256 208.867V236.793H101.714V205.287Z" fill="#424242"/>
<path d="M112.964 147.711V236.793H116.459V179.163H114.932L112.964 147.711Z" fill="#424242"/>
<path d="M149.823 193.509V236.793H153.312V204.054C152.402 202.698 151.661 201.236 151.105 199.701C150.501 197.678 150.072 195.606 149.823 193.509Z" fill="#424242"/>
<path d="M157.193 208.585V236.787H160.688V220.381C160.035 217.081 159.574 213.747 159.308 210.394C158.64 209.873 157.922 209.266 157.193 208.585Z" fill="#424242"/>
<path d="M145.942 142.065C144.777 141.703 143.606 141.353 142.454 141.01V236.793H145.942V142.065Z" fill="#424242"/>
<path d="M138.573 179.163H135.078V236.794H138.573V179.163Z" fill="#424242"/>
<path d="M131.204 179.163H127.709V236.794H131.204V179.163Z" fill="#424242"/>
<path d="M159.308 210.394C156.5 208.205 152.852 204.606 151.105 199.701C148.389 192.093 146.39 151.267 145.973 142.071C144.52 141.629 143.061 141.188 141.627 140.765L142.24 179.163H114.957L112.572 140.961C111.119 141.409 109.654 141.868 108.219 142.322C108.25 150.078 108.25 186.256 106.067 196.636C104.393 204.606 97.4226 209.983 93.1922 212.576C92.1665 220.834 90.219 228.951 87.3862 236.775H165.556C162.156 228.346 160.05 219.452 159.308 210.394V210.394Z" stroke="#161616" stroke-width="0.679427" stroke-linecap="round" stroke-linejoin="round"/>
<path d="M123.479 131.25C123.479 131.25 115.509 134.1 113.97 137.331C112.431 140.562 113.209 153.272 111.879 157.104C110.549 160.936 107.318 163.762 109.034 163.977C110.751 164.191 115.876 156.368 118.537 157.318C121.198 158.269 128.426 168.158 128.997 168.158C129.567 168.158 135.085 161.506 136.225 159.415C137.365 157.324 141.547 160.555 143.447 165.307C145.348 170.058 145.9 168.372 145.9 166.637C145.9 164.902 143.619 157.508 143.999 156.178C144.379 154.848 143.809 148.208 143.809 141.537C143.848 138.913 142.951 136.36 141.278 134.337C139.605 132.315 137.265 130.955 134.68 130.502C130.493 129.723 123.479 131.25 123.479 131.25Z" fill="white" stroke="#161616" stroke-width="0.679427" stroke-linecap="round" stroke-linejoin="round"/>
<path d="M119.862 126.492V147.981C119.862 147.981 126.9 171.174 129.371 169.439C131.841 167.704 137.549 148.907 137.549 148.907V126.682C137.549 126.682 128.8 130.489 119.862 126.492Z" fill="white" stroke="#161616" stroke-width="0.679427" stroke-linecap="round" stroke-linejoin="round"/>
<path d="M119.862 126.492V130.962C123.418 133.003 127.605 134.383 131.375 134.383C133.524 134.356 135.636 133.834 137.549 132.856V126.682C137.549 126.682 128.8 130.489 119.862 126.492Z" fill="#161616" stroke="#161616" stroke-width="0.679427" stroke-linecap="round" stroke-linejoin="round"/>
<path d="M112.639 103.109C112.639 103.109 108.458 97.5908 105.981 101.582C103.504 105.573 109.978 112.992 111.879 112.802C113.78 112.612 112.639 103.109 112.639 103.109Z" fill="white" stroke="#161616" stroke-width="0.679427" stroke-linecap="round" stroke-linejoin="round"/>
<path d="M146.267 103.109C146.267 103.109 150.449 97.5908 152.925 101.582C155.402 105.573 148.928 112.992 147.027 112.802C145.127 112.612 146.267 103.109 146.267 103.109Z" fill="white" stroke="#161616" stroke-width="0.679427" stroke-linecap="round" stroke-linejoin="round"/>
<path d="M112.1 95.3837C112.1 95.3837 109.991 114.39 111.836 119.907C113.682 125.425 123.442 131.513 131.357 131.513C139.272 131.513 145.857 123.868 146.917 119.38C147.978 114.892 145.593 86.1506 144.011 82.987C142.429 79.8235 132.411 79.5598 122.387 84.5688C112.363 89.5778 112.1 95.3837 112.1 95.3837Z" fill="white" stroke="#161616" stroke-width="0.679427" stroke-linecap="round" stroke-linejoin="round"/>
<path d="M131.841 98.3755C131.841 98.3755 130.131 102.943 131.651 105.604C133.172 108.265 132.221 110.165 130.511 110.165C128.8 110.165 128.059 107.314 128.059 107.314" stroke="#161616" stroke-width="0.679427" stroke-linecap="round" stroke-linejoin="round"/>
<path d="M122.148 112.041C122.148 112.041 130.119 117.559 137.169 112.041" stroke="#161616" stroke-width="0.679427" stroke-linecap="round" stroke-linejoin="round"/>
<path d="M133.558 95.6902C133.558 95.6902 136.985 91.889 140.977 96.0703" stroke="#161616" stroke-width="0.679427" stroke-linecap="round" stroke-linejoin="round"/>
<path d="M125.76 95.3102C125.76 95.3102 122.339 91.6991 118.151 94.9301" stroke="#161616" stroke-width="0.679427" stroke-linecap="round" stroke-linejoin="round"/>
<path d="M136.789 103.673C137.419 103.673 137.93 102.652 137.93 101.392C137.93 100.132 137.419 99.1113 136.789 99.1113C136.159 99.1113 135.649 100.132 135.649 101.392C135.649 102.652 136.159 103.673 136.789 103.673Z" fill="#161616"/>
<path d="M122.529 103.673C123.159 103.673 123.669 102.652 123.669 101.392C123.669 100.132 123.159 99.1113 122.529 99.1113C121.899 99.1113 121.388 100.132 121.388 101.392C121.388 102.652 121.899 103.673 122.529 103.673Z" fill="#161616"/>
<path d="M117.005 104.629C118.957 104.307 120.95 104.307 122.903 104.629" stroke="#161616" stroke-width="0.679427" stroke-linecap="round" stroke-linejoin="round"/>
<path d="M136.409 104.819C138.294 104.472 140.226 104.472 142.111 104.819" stroke="#161616" stroke-width="0.679427" stroke-linecap="round" stroke-linejoin="round"/>
<path d="M102.94 106.346C102.94 106.346 132.792 93.9859 140.02 88.278C147.248 82.5701 149.143 71.5467 132.221 72.1169C115.3 72.687 97.4285 92.4654 95.908 101.588C94.3875 110.711 100.451 108.798 100.451 108.798" fill="#161616"/>
<path d="M143.674 72.6257C136.774 81.0313 128.417 88.1256 119.003 93.569C103.222 102.765 93.1797 104.476 93.1797 104.476" stroke="#858585" stroke-width="0.679427" stroke-linecap="round" stroke-linejoin="round"/>
<path d="M132.485 69.738C132.485 69.738 118.427 91.8094 92.3215 100.436" stroke="#858585" stroke-width="0.679427" stroke-linecap="round" stroke-linejoin="round"/>
<path d="M102.94 106.346C102.94 106.346 132.792 93.9859 140.02 88.278C147.248 82.5701 149.143 71.5467 132.221 72.1169C115.3 72.687 97.4285 92.4654 95.908 101.588C94.3875 110.711 100.451 108.798 100.451 108.798" stroke="#161616" stroke-width="0.679427" stroke-linecap="round" stroke-linejoin="round"/>
<path d="M166.432 174.718C166.432 174.718 162.907 173.185 158.768 171.806C154.63 170.426 152.331 173.185 154.017 175.638C155.703 178.09 161.681 178.55 164.593 181.155C167.505 183.761 169.804 192.191 172.716 193.724C174.639 194.685 176.713 195.307 178.847 195.563V174.718H166.432Z" fill="white" stroke="#161616" stroke-width="0.679427" stroke-linecap="round" stroke-linejoin="round"/>
<path d="M184.463 199.781H166.977L163.066 163.713H188.374L184.463 199.781Z" fill="#FF9D01" stroke="#161616" stroke-width="0.679427" stroke-linecap="round" stroke-linejoin="round"/>
<path d="M188.975 158.06H162.459L160.148 162.916H191.569L188.975 158.06Z" fill="white" stroke="#161616" stroke-width="0.679427" stroke-linecap="round" stroke-linejoin="round"/>
<path d="M163.446 164.485H188.54L190.729 162.916H160.994L163.446 164.485Z" fill="white" stroke="#161616" stroke-width="0.679427" stroke-linecap="round" stroke-linejoin="round"/>
<path d="M185.536 189.892L187.78 169.2H163.661L165.905 189.892H185.536Z" fill="white" stroke="#161616" stroke-width="0.679427" stroke-linecap="round" stroke-linejoin="round"/>
<path d="M191.262 175.484C191.262 175.484 183.139 175.638 181.606 177.17C180.074 178.703 180.533 180.542 183.446 180.849C186.358 181.155 190.649 181.768 192.949 181.155C195.248 180.542 195.248 175.484 191.262 175.484Z" fill="white" stroke="#161616" stroke-width="0.679427" stroke-linecap="round" stroke-linejoin="round"/>
<path d="M189.399 191.885C189.399 191.885 182.949 192.007 181.735 193.227C180.521 194.447 180.883 195.9 183.194 196.146C185.506 196.391 188.908 196.875 190.735 196.385C192.562 195.894 192.556 191.885 189.399 191.885Z" fill="white" stroke="#161616" stroke-width="0.679427" stroke-linecap="round" stroke-linejoin="round"/>
<path d="M192.795 181.756C192.795 181.756 182.219 181.756 179.614 182.216C177.008 182.676 176.088 185.281 179.92 186.048C183.752 186.814 191.569 187.274 194.021 186.967C196.474 186.661 196.627 181.615 192.795 181.756Z" fill="white" stroke="#161616" stroke-width="0.679427" stroke-linecap="round" stroke-linejoin="round"/>
<path d="M192.182 187.274C192.182 187.274 183.752 186.968 180.84 188.04C177.927 189.113 179 190.646 181.759 191.259C184.518 191.872 190.649 192.639 192.948 191.872C195.247 191.106 195.247 186.98 192.182 187.274Z" fill="white" stroke="#161616" stroke-width="0.679427" stroke-linecap="round" stroke-linejoin="round"/>
<path d="M61.826 133.187C61.826 133.187 60.2013 134.162 61.3417 139.042L62.4759 143.916L69.4651 142.616C69.4651 142.616 66.3997 137.099 65.0754 134.646C63.7511 132.194 62.1755 132.537 61.826 133.187Z" fill="white" stroke="#161616" stroke-width="0.679427" stroke-linecap="round" stroke-linejoin="round"/>
<path d="M56.3084 142.132C56.3084 142.132 78.576 138.392 85.2464 136.118C90.2643 134.495 95.3641 133.138 100.525 132.053C101.858 131.745 103.221 131.58 104.589 131.562C104.589 131.562 105.239 131.562 105.08 134.327C104.921 137.092 108.654 173.02 112.069 184.074C115.484 195.128 117.587 200.333 117.587 200.333C117.587 200.333 97.5941 204.398 79.0603 204.398C68.8145 204.465 58.5842 203.593 48.4976 201.792C47.8478 201.792 56.4678 169.298 56.1368 158.226C55.8302 147.031 56.3084 142.132 56.3084 142.132Z" fill="#FF9D01" stroke="#161616" stroke-width="0.679427" stroke-linecap="round" stroke-linejoin="round"/>
<path d="M112.1 184.074C108.685 173.038 104.945 137.092 105.111 134.327C105.276 131.562 104.62 131.562 104.62 131.562C103.857 131.573 103.096 131.628 102.339 131.728C102.254 132.428 102.254 133.136 102.339 133.837C102.339 133.837 102.168 151.561 101.677 172.56C101.273 189.959 101.536 199.965 101.64 202.871C110.892 201.725 117.581 200.364 117.581 200.364C117.581 200.364 115.502 195.128 112.1 184.074Z" fill="#FF9D01" stroke="#161616" stroke-width="0.679427" stroke-linecap="round" stroke-linejoin="round"/>
<path d="M104.283 132.378V140.507C104.283 143.107 104.773 144.407 103.792 144.407C102.811 144.407 94.6941 145.872 81.5249 148.471C73.1559 150.141 64.6809 151.227 56.1612 151.721C55.1864 151.721 56.3268 142.132 56.3268 142.132C56.3268 142.132 81.0344 138.227 88.9985 135.627C93.7373 134.075 98.57 132.826 103.467 131.887" fill="#FF9D01"/>
<path d="M104.283 132.378V140.507C104.283 143.107 104.773 144.407 103.792 144.407C102.811 144.407 94.6941 145.872 81.5249 148.471C73.1559 150.141 64.6809 151.227 56.1612 151.721C55.1864 151.721 56.3268 142.132 56.3268 142.132C56.3268 142.132 81.0344 138.227 88.9985 135.627C93.7373 134.075 98.57 132.826 103.467 131.887" stroke="#161616" stroke-width="0.679427" stroke-linecap="round" stroke-linejoin="round"/>
<path d="M75.8352 126.523C75.8352 126.523 77.4599 122.783 81.8496 125.223C86.2394 127.663 89.1638 136.443 88.5139 138.227C87.8641 140.011 85.7489 140.507 83.9587 138.717C82.1684 136.927 77.6193 130.428 76.4851 128.638C75.3509 126.848 75.8352 126.523 75.8352 126.523Z" fill="white" stroke="#161616" stroke-width="0.679427" stroke-linecap="round" stroke-linejoin="round"/>
<path d="M70.9552 128.797C70.9552 128.797 79.1707 140.777 80.7096 141.807C82.2484 142.837 85.1116 143.426 84.2839 139.857C83.5053 136.467 80.3846 129.938 78.2694 127.663C76.1543 125.388 74.6951 125.064 72.9049 126.038C71.1147 127.013 70.6303 127.498 70.9552 128.797Z" fill="white" stroke="#161616" stroke-width="0.679427" stroke-linecap="round" stroke-linejoin="round"/>
<path d="M71.6357 128.147C71.6357 128.147 79.2749 137.902 79.9309 140.182C80.5869 142.463 79.2749 146.197 75.8661 144.082C72.4573 141.966 69.3612 134.977 67.4115 132.537C65.4619 130.097 68.84 126.363 71.6357 128.147Z" fill="white" stroke="#161616" stroke-width="0.679427" stroke-linecap="round" stroke-linejoin="round"/>
<path d="M67.0559 130.587C67.0559 130.587 62.1511 131.237 61.538 133.837C60.925 136.436 65.1124 142.132 68.5273 143.107C71.9422 144.082 72.917 141.317 71.9422 139.042C70.9674 136.767 68.6806 131.078 67.0559 130.587Z" fill="white" stroke="#161616" stroke-width="0.679427" stroke-linecap="round" stroke-linejoin="round"/>
<path d="M244.509 225.598H191.465L203.874 167.998H256.918L244.509 225.598Z" fill="#161616" stroke="#161616" stroke-width="0.679427" stroke-linecap="round" stroke-linejoin="round"/>
<path d="M256.918 167.998H203.874C203.874 167.998 233.909 175.251 256.918 167.998Z" fill="#6B6B6B" stroke="#161616" stroke-width="0.679427" stroke-linecap="round" stroke-linejoin="round"/>
<path d="M220.874 192.859L215.283 210.057L224.817 216.482L228.544 205.71L220.874 192.859Z" fill="#3B3B3B" stroke="#161616" stroke-width="0.679427" stroke-linecap="round" stroke-linejoin="round"/>
<path d="M220.875 192.859H239.317L242.217 203.846L228.545 205.71L220.875 192.859Z" fill="#3B3B3B" stroke="#161616" stroke-width="0.679427" stroke-linecap="round" stroke-linejoin="round"/>
<path d="M237.226 235.334C236.277 222.599 232.381 210.257 225.847 199.285L211.304 235.334H237.226Z" fill="#3B3B3B" stroke="#161616" stroke-width="0.679427" stroke-linecap="round" stroke-linejoin="round"/>
<path d="M260.107 235.334C260.487 218.505 251.75 199.285 251.75 199.285H225.847C232.381 210.257 236.277 222.599 237.226 235.334H260.107Z" fill="#6B6B6B" stroke="#161616" stroke-width="0.679427" stroke-linecap="round" stroke-linejoin="round"/>
<path d="M268.629 233.421H7.68408V240H268.629V233.421Z" fill="white" stroke="#161616" stroke-width="0.679427" stroke-linecap="round" stroke-linejoin="round"/>
</svg>
